<svg xmlns="http://www.w3.org/2000/svg" xmlns:xlink="http://www.w3.org/1999/xlink" xmlns:lucid="lucid" width="2368.11" height="1175.51"><g transform="translate(-6658.111701673497 2305.1509780484203)" lucid:page-tab-id="0_0"><path d="M6500-2500h3000v1500H6500z" fill="#fff"/><path d="M6659.1-2206.75a6 6 0 0 1 6-6h2354.12a6 6 0 0 1 6 6v1070.1a6 6 0 0 1-6 6h-2354.1a6 6 0 0 1-6-6z" stroke="#3a414a" stroke-width="2" fill="#fff"/><path d="M6659.1-2299.15a6 6 0 0 1 6-6h711.8a6 6 0 0 1 6 6v68.4a6 6 0 0 1-6 6h-711.8a6 6 0 0 1-6-6z" fill="#3a414a"/><use xlink:href="#a" transform="matrix(1,0,0,1,6675.111701673497,-2289.1509780484203) translate(0 39.05078125)"/><use xlink:href="#b" transform="matrix(1,0,0,1,6675.111701673497,-2289.1509780484203) translate(90.390625 39.05078125)"/><use xlink:href="#c" transform="matrix(1,0,0,1,6675.111701673497,-2289.1509780484203) translate(188.7109375 39.05078125)"/><use xlink:href="#d" transform="matrix(1,0,0,1,6675.111701673497,-2289.1509780484203) translate(358.10546875 39.05078125)"/><use xlink:href="#e" transform="matrix(1,0,0,1,6675.111701673497,-2289.1509780484203) translate(460.2734375 39.05078125)"/><path d="M6739.1-2126.75a6 6 0 0 1 6-6h229.96a6 6 0 0 1 6 6v170.2a6 6 0 0 1-6 6H6745.1a6 6 0 0 1-6-6z" stroke="#1071e5" stroke-width="4" fill="#cfe4ff"/><use xlink:href="#f" transform="matrix(1,0,0,1,6751.111701673497,-2120.7525405484203) translate(25.731770833333343 41.40277777777778)"/><use xlink:href="#g" transform="matrix(1,0,0,1,6751.111701673497,-2120.7525405484203) translate(80.35416666666667 41.40277777777778)"/><use xlink:href="#h" transform="matrix(1,0,0,1,6751.111701673497,-2120.7525405484203) translate(8.0234375 73.66840277777777)"/><use xlink:href="#i" transform="matrix(1,0,0,1,6751.111701673497,-2120.7525405484203) translate(113.91536458333334 73.66840277777777)"/><use xlink:href="#j" transform="matrix(1,0,0,1,6751.111701673497,-2120.7525405484203) translate(29.068359375 105.93402777777777)"/><use xlink:href="#k" transform="matrix(1,0,0,1,6751.111701673497,-2120.7525405484203) translate(81.26019965277777 105.93402777777777)"/><use xlink:href="#l" transform="matrix(1,0,0,1,6751.111701673497,-2120.7525405484203) translate(106.021484375 105.93402777777777)"/><use xlink:href="#m" transform="matrix(1,0,0,1,6751.111701673497,-2120.7525405484203) translate(35.242404513888886 138.19965277777777)"/><use xlink:href="#n" transform="matrix(1,0,0,1,6751.111701673497,-2120.7525405484203) translate(111.67469618055554 138.19965277777777)"/><path d="M7181.06-2107.1a6 6 0 0 1 6-6h177.8a6 6 0 0 1 6 6v130.92a6 6 0 0 1-6 6h-177.8a6 6 0 0 1-6-6z" stroke="#1071e5" stroke-width="4" fill="#cfe4ff"/><use xlink:href="#o" transform="matrix(1,0,0,1,7193.064826673497,-2101.1123147468084) translate(8.103081597222229 36.40277777777778)"/><use xlink:href="#p" transform="matrix(1,0,0,1,7193.064826673497,-2101.1123147468084) translate(75.89822048611111 36.40277777777778)"/><use xlink:href="#q" transform="matrix(1,0,0,1,7193.064826673497,-2101.1123147468084) translate(20.99370659722223 68.66840277777777)"/><use xlink:href="#r" transform="matrix(1,0,0,1,7193.064826673497,-2101.1123147468084) translate(100.14952256944444 68.66840277777777)"/><use xlink:href="#s" transform="matrix(1,0,0,1,7193.064826673497,-2101.1123147468084) translate(17.21766493055557 100.93402777777777)"/><use xlink:href="#t" transform="matrix(1,0,0,1,7193.064826673497,-2101.1123147468084) translate(105.10828993055556 100.93402777777777)"/><path d="M7665.2-2112.4a8 8 0 0 1 9.6 0l89.57 67.15a4.5 4.5 0 0 1 0 7.2l-89.56 67.17a8 8 0 0 1-9.6 0l-89.54-67.17a4.5 4.5 0 0 1 0-7.2z" stroke="#d916a8" stroke-width="4" fill="#ff80df"/><use xlink:href="#u" transform="matrix(1,0,0,1,7575.858663479053,-2111.01196859626) translate(35.324444444444445 77.99652777777777)"/><use xlink:href="#v" transform="matrix(1,0,0,1,7575.858663479053,-2111.01196859626) translate(106.25543402777778 77.99652777777777)"/><path d="M7210.13-1698.53a6 6 0 0 1 6-6h119.66a6 6 0 0 1 6 6v87.15a6 6 0 0 1-6 6h-119.67a6 6 0 0 1-6-6z" stroke="#1071e5" stroke-width="4" fill="#cfe4ff"/><use xlink:href="#w" transform="matrix(1,0,0,1,7222.130226121357,-1692.534254717016) translate(11.676866319444443 31.02777777777778)"/><use xlink:href="#x" transform="matrix(1,0,0,1,7222.130226121357,-1692.534254717016) translate(36.253689236111114 63.29340277777778)"/><path d="M8030.78-2085.22a6 6 0 0 1 6-6h119.66a6 6 0 0 1 6 6v87.15a6 6 0 0 1-6 6h-119.66a6 6 0 0 1-6-6z" stroke="#1071e5" stroke-width="4" fill="#cfe4ff"/><use xlink:href="#y" transform="matrix(1,0,0,1,8042.779097649134,-2079.2235571379265) translate(24.746527777777782 31.02777777777778)"/><use xlink:href="#z" transform="matrix(1,0,0,1,8042.779097649134,-2079.2235571379265) translate(24.952690972222225 63.29340277777778)"/><path d="M7592.35-1707.44a6 6 0 0 1 6-6h143.32a6 6 0 0 1 6 6v104.97a6 6 0 0 1-6 6h-143.32a6 6 0 0 1-6-6z" stroke="#1071e5" stroke-width="4" fill="#cfe4ff"/><use xlink:href="#A" transform="matrix(1,0,0,1,7604.351719034608,-1701.4425676885521) translate(8.339409722222236 53.49652777777778)"/><path d="M7600.6-1331.28a6 6 0 0 1 6-6h126.83a6 6 0 0 1 6 6v92.55a6 6 0 0 1-6 6H7606.6a6 6 0 0 1-6-6z" stroke="#1071e5" stroke-width="4" fill="#cfe4ff"/><use xlink:href="#B" transform="matrix(1,0,0,1,7612.598246812386,-1325.2834891402413) translate(8.085937500000007 31.65277777777778)"/><use xlink:href="#C" transform="matrix(1,0,0,1,7612.598246812386,-1325.2834891402413) translate(19.853515625 63.91840277777778)"/><use xlink:href="#D" transform="matrix(1,0,0,1,7612.598246812386,-1325.2834891402413) translate(40.41558159722222 63.91840277777778)"/><path d="M8424.06-1715.72a6 6 0 0 1 6-6h165.3a6 6 0 0 1 6 6v121.52a6 6 0 0 1-6 6h-165.3a6 6 0 0 1-6-6z" stroke="#1071e5" stroke-width="4" fill="#cfe4ff"/><use xlink:href="#E" transform="matrix(1,0,0,1,8436.055278062386,-1709.7162222024413) translate(36.1037326388889 45.59027777777778)"/><use xlink:href="#F" transform="matrix(1,0,0,1,8436.055278062386,-1709.7162222024413) translate(8.353081597222229 77.85590277777777)"/><path d="M8091.8-1355.77a8 8 0 0 1 9.6 0l89.56 67.16a4.5 4.5 0 0 1 0 7.2l-89.55 67.16a8 8 0 0 1-9.6 0l-89.54-67.17a4.5 4.5 0 0 1 0-7.2z" stroke="#d916a8" stroke-width="4" fill="#ff80df"/><use xlink:href="#G" transform="matrix(1,0,0,1,8002.45697077072,-1354.3739357065992) translate(30.881085069444445 77.99652777777777)"/><use xlink:href="#v" transform="matrix(1,0,0,1,8002.45697077072,-1354.3739357065992) translate(110.69879340277778 77.99652777777777)"/><path d="M8091.8-1746.94a8 8 0 0 1 9.6 0l117.85 88.38a4.5 4.5 0 0 1 0 7.2l-117.84 88.4a8 8 0 0 1-9.6 0l-117.83-88.4a4.5 4.5 0 0 1 0-7.2z" stroke="#d916a8" stroke-width="4" fill="#ff80df"/><use xlink:href="#H" transform="matrix(1,0,0,1,7974.16595514572,-1745.5409278940992) translate(31.201831597222235 101.15277777777777)"/><use xlink:href="#v" transform="matrix(1,0,0,1,7974.16595514572,-1745.5409278940992) translate(167.378046875 101.15277777777777)"/><path d="M8446.87-2085.22a6 6 0 0 1 6-6h119.66a6 6 0 0 1 6 6v87.15a6 6 0 0 1-6 6h-119.66a6 6 0 0 1-6-6z" stroke="#1071e5" stroke-width="4" fill="#cfe4ff"/><use xlink:href="#I" transform="matrix(1,0,0,1,8458.870677510246,-2079.2235571379265) translate(3.2133246527777857 45.27777777777778)"/><use xlink:href="#v" transform="matrix(1,0,0,1,8458.870677510246,-2079.2235571379265) translate(58.35655381944444 45.27777777777778)"/><path d="M8807.45-2085.22a6 6 0 0 1 6-6h119.67a6 6 0 0 1 6 6v87.15a6 6 0 0 1-6 6h-119.67a6 6 0 0 1-6-6z" stroke="#1071e5" stroke-width="4" fill="#cfe4ff"/><use xlink:href="#J" transform="matrix(1,0,0,1,8819.454444871357,-2079.2235571379265) translate(29.55338541666667 31.02777777777778)"/><use xlink:href="#z" transform="matrix(1,0,0,1,8819.454444871357,-2079.2235571379265) translate(24.952690972222225 63.29340277777778)"/><path d="M8801.35-1703.13a6 6 0 0 1 6-6h131.87a6 6 0 0 1 6 6v96.35a6 6 0 0 1-6 6h-131.87a6 6 0 0 1-6-6z" stroke="#1071e5" stroke-width="4" fill="#cfe4ff"/><use xlink:href="#K" transform="matrix(1,0,0,1,8813.349114867942,-1697.132095830699) translate(8.063151041666671 34.80902777777778)"/><use xlink:href="#L" transform="matrix(1,0,0,1,8813.349114867942,-1697.132095830699) translate(2.6920572916666714 67.07465277777777)"/><path d="M6985.06-2041.65h171.27" stroke="#3a414a" stroke-width="4" fill="none"/><path d="M6985.12-2039.67h-2.06v-3.95h2.06z" stroke="#3a414a" stroke-width=".05" fill="#3a414a"/><path d="M7172.6-2041.65l-14.27 4.64v-9.28z" stroke="#3a414a" stroke-width="4" fill="#3a414a"/><path d="M7374.86-2058.17h191.96" stroke="#3a414a" stroke-width="4" fill="none"/><path d="M7374.9-2056.2h-2.04v-3.95h2.05z" stroke="#3a414a" stroke-width=".05" fill="#3a414a"/><path d="M7583.1-2058.17l-14.28 4.63v-9.27z" stroke="#3a414a" stroke-width="4" fill="#3a414a"/><path d="M7275.96-1966.18v236.9" stroke="#3a414a" stroke-width="4" fill="none"/><path d="M7277.94-1966.13H7274v-2.05h3.94z" stroke="#3a414a" stroke-width=".05" fill="#3a414a"/><path d="M7275.96-1713l-4.63-14.27h9.27z" stroke="#3a414a" stroke-width="4" fill="#3a414a"/><path d="M8091.86-2174.64l1.22.3 1.15.48 1.07.65.95.8.82.96.65 1.06.48 1.16.3 1.22.1 1.17v50.87h-3.96v-50.72l-.06-.7-.15-.6-.24-.6-.34-.53-.4-.5-.5-.4-.52-.33-.6-.24-.6-.15-.7-.06H7941.8v-3.95h148.9zm-244.24 3.86H7676.1l-.72.06-.6.14-.6.25-.53.33-.48.4-.4.5-.34.52-.24.6-.16.6-.05.7v48.66h-3.96v-48.8l.1-1.18.28-1.22.48-1.16.66-1.06.8-.96.96-.8 1.07-.66 1.15-.48 1.2-.3 1.2-.1h171.67z" stroke="#3a414a" stroke-width=".05" fill="#3a414a"/><path d="M7672-2115.8l-.7-.13-1.3-.1-1.27.1-.7.13v-2.27h3.96z" fill="#3a414a"/><path stroke="#3a414a" stroke-width=".05" fill="#3a414a"/><path d="M8096.6-2099.7l-4.63-14.26h9.28z" fill="#3a414a"/><path d="M8096.6-2093.3l-7.34-22.64h14.7zm-1.9-18.7l1.9 5.9 1.93-5.9z" stroke="#3a414a" stroke-width=".05" fill="#3a414a"/><use xlink:href="#M" transform="matrix(1,0,0,1,7847.6200841587315,-2183.5077488817537) translate(0 17.22222222222222)"/><use xlink:href="#N" transform="matrix(1,0,0,1,7847.6200841587315,-2183.5077488817537) translate(51.640625 17.22222222222222)"/><path d="M7672-1738.18h-3.96v-92.42h3.95zm0-113.93l-3.96-.02v-113.16h3.95z" stroke="#3a414a" stroke-width=".05" fill="#3a414a"/><path d="M7668.73-1967.36l1.28.08 1.3-.08.7-.13v2.27h-3.96v-2.26z" fill="#3a414a"/><path stroke="#3a414a" stroke-width=".05" fill="#3a414a"/><path d="M7670-1721.9l-4.62-14.28h9.27z" fill="#3a414a"/><path d="M7670-1715.52l-7.34-22.64h14.7zm-1.9-18.7l1.9 5.9 1.93-5.9z" stroke="#3a414a" stroke-width=".05" fill="#3a414a"/><use xlink:href="#O" transform="matrix(1,0,0,1,7630.185920423497,-1852.1151529040233) translate(0 17.22222222222222)"/><use xlink:href="#N" transform="matrix(1,0,0,1,7630.185920423497,-1852.1151529040233) translate(37.11805555555556 17.22222222222222)"/><path d="M7871.14-1290.93l-.1 1.17-.28 1.22-.48 1.15-.66 1.08-.8.95-.96.82-1.07.65-1.17.48-1.22.3-1.16.1h-99.08v-3.96h98.93l.7-.06.6-.15.6-.23.53-.33.48-.4.42-.5.33-.52.24-.6.14-.6.05-.7v-348.12h3.94zm-6.73-752.6l1.23.3 1.16.47 1.06.66.95.8.82.96.66 1.07.48 1.16.3 1.2.08 1.18v375h-3.95v-374.85l-.06-.7-.15-.62-.25-.57-.33-.54-.4-.5-.5-.4-.53-.33-.6-.24-.6-.15-.7-.05h-92.93v-3.95h93.07z" stroke="#3a414a" stroke-width=".05" fill="#3a414a"/><path d="M7770.23-2039.67h-2.4l.23-.78.1-1.2-.1-1.2-.22-.77h2.4z" fill="#3a414a"/><path stroke="#3a414a" stroke-width=".05" fill="#3a414a"/><path d="M7762.16-1280.37l-14.26-4.64 14.26-4.64z" fill="#3a414a"/><path d="M7764.14-1277.65l-22.63-7.36 22.64-7.36zm-9.85-7.36l5.9 1.9v-3.83z" stroke="#3a414a" stroke-width=".05" fill="#3a414a"/><use xlink:href="#P" transform="matrix(1,0,0,1,7817.477587090164,-1660.708814759895) translate(0 17.22222222222222)"/><use xlink:href="#Q" transform="matrix(1,0,0,1,7817.477587090164,-1660.708814759895) translate(31.657986111111114 17.22222222222222)"/><path d="M7587.56-2023.15h-110.62l-.7.06-.62.16-.6.24-.52.33-.48.4-.4.5-.34.52-.24.6-.15.6-.07.7v842.33l.06.7.14.62.24.58.33.54.42.48.48.4.53.34.6.24.6.15.7.05H7613v3.95h-136.22l-1.17-.1-1.2-.28-1.16-.48-1.07-.66-.95-.8-.82-.95-.65-1.07-.48-1.16-.3-1.2-.1-1.2v-842.62l.1-1.17.3-1.22.48-1.14.65-1.07.82-.97.95-.8 1.06-.66 1.16-.48 1.2-.3 1.18-.1h110.78zm949.06 846.58l-.1 1.17-.28 1.22-.48 1.16-.66 1.07-.8.95-.96.8-1.07.67-1.16.48-1.2.3-1.18.08h-693.84v-3.95h693.7l.7-.05.6-.15.6-.24.53-.33.5-.4.4-.48.33-.54.24-.58.15-.62.05-.7v-100.14h3.95zm0-121.8h-3.95v-265.1h3.95z" stroke="#3a414a" stroke-width=".05" fill="#3a414a"/><path d="M7592.2-2023.15h-4.7v-3.5z" fill="#3a414a"/><path stroke="#3a414a" stroke-width=".05" fill="#3a414a"/><path d="M8539.28-1565.46H8530l4.65-14.27z" fill="#3a414a"/><path d="M8542-1563.5h-14.7l7.35-22.62zm-9.27-3.94h3.83l-1.9-5.9z" stroke="#3a414a" stroke-width=".05" fill="#3a414a"/><use xlink:href="#R" transform="matrix(1,0,0,1,7612.998883036131,-1181.3986752899325) translate(0 17.22222222222222)"/><use xlink:href="#S" transform="matrix(1,0,0,1,7612.998883036131,-1181.3986752899325) translate(85.34722222222221 17.22222222222222)"/><use xlink:href="#T" transform="matrix(1,0,0,1,7612.998883036131,-1181.3986752899325) translate(132.33506944444443 17.22222222222222)"/><use xlink:href="#U" transform="matrix(1,0,0,1,7612.998883036131,-1181.3986752899325) translate(192.56944444444443 17.22222222222222)"/><path d="M8326.03-1465.3l-.1 1.17-.28 1.22-.48 1.15-.66 1.07-.8.95-.95.8-1.07.67-1.16.48-1.22.3-1.17.08H8102.7l-.72.06-.6.14-.6.25-.53.33-.48.4-.4.48-.34.54-.24.58-.16.62-.05.7v91.92h-3.96v-92.07l.1-1.17.28-1.22.48-1.16.65-1.07.82-.95.95-.8 1.07-.66 1.14-.48 1.22-.3 1.17-.1h215.45l.7-.05.62-.15.58-.24.54-.32.48-.4.4-.5.34-.53.24-.58.15-.6.05-.72v-165.85h3.95zm0-213.32h-3.95v-45.63h3.95zm0-67.14h-3.95v-94.03h3.95zM8319.3-2027l1.22.3 1.16.47 1.07.65.95.8.8.97.67 1.06.48 1.15.3 1.23.08 1.17v157.9h-3.95v-157.74l-.06-.7-.14-.62-.24-.6-.33-.52-.4-.48-.48-.4-.54-.34-.58-.24-.62-.15-.7-.05h-130.8v-3.95h130.95z" stroke="#3a414a" stroke-width=".05" fill="#3a414a"/><path d="M8098.6-1359.16l-.7-.13-1.3-.08-1.27.1-.7.12v-2.27h3.96z" fill="#3a414a"/><path stroke="#3a414a" stroke-width=".05" fill="#3a414a"/><path d="M8185.18-2020.5l-14.27-4.62 14.28-4.64z" fill="#3a414a"/><path d="M8187.15-2017.77l-22.63-7.35 22.63-7.36zm-9.84-7.35l5.9 1.92v-3.84z" stroke="#3a414a" stroke-width=".05" fill="#3a414a"/><use xlink:href="#V" transform="matrix(1,0,0,1,8285.331319729052,-1745.7552083333333) translate(0 17.22222222222222)"/><path d="M8367.02-1283.03h-170.25v-3.95h170.25zm125.7-15.34h-3.94v-265.1h3.95z" stroke="#3a414a" stroke-width=".05" fill="#3a414a"/><path d="M8196.82-1283.03h-2.38l.22-.78.1-1.2-.1-1.2-.22-.78h2.38z" fill="#3a414a"/><path stroke="#3a414a" stroke-width=".05" fill="#3a414a"/><path d="M8495.4-1565.46h-9.28l4.64-14.27z" fill="#3a414a"/><path d="M8498.1-1563.5h-14.7l7.36-22.62zm-9.26-3.94h3.83l-1.9-5.9z" stroke="#3a414a" stroke-width=".05" fill="#3a414a"/><use xlink:href="#W" transform="matrix(1,0,0,1,8367.021377646859,-1298.3661454576588) translate(0 17.22222222222222)"/><use xlink:href="#X" transform="matrix(1,0,0,1,8367.021377646859,-1298.3661454576588) translate(44.28819444444444 17.22222222222222)"/><use xlink:href="#Y" transform="matrix(1,0,0,1,8367.021377646859,-1298.3661454576588) translate(110.9375 17.22222222222222)"/><use xlink:href="#T" transform="matrix(1,0,0,1,8367.021377646859,-1298.3661454576588) translate(157.92534722222223 17.22222222222222)"/><use xlink:href="#U" transform="matrix(1,0,0,1,8367.021377646859,-1298.3661454576588) translate(218.15972222222223 17.22222222222222)"/><path d="M7817.48-1652.98h-65.8v-3.95h65.8zm129.94-3.95v3.95h-26.57v-3.95zm-74.2-4.98l1.2 1.2h-10.5l1.2-1.2 4.05-1.1z" stroke="#3a414a" stroke-width=".05" fill="#3a414a"/><path d="M7751.72-1652.98h-2.05v-3.95h2.05z" fill="#3a414a"/><path stroke="#3a414a" stroke-width=".05" fill="#3a414a"/><path d="M7963.7-1654.96l-14.28 4.64v-9.27z" fill="#3a414a"/><path d="M7970.08-1654.96l-22.64 7.36v-14.7zm-18.7 1.92l5.9-1.92-5.9-1.9zM8076.64-1738.58h-3.95v-114h3.94zm0-135.5h-3.95v-93.25h3.94z" stroke="#3a414a" stroke-width=".05" fill="#3a414a"/><path d="M8076.64-1738.06l-3.95 2.96v-3.53h3.94z" fill="#3a414a"/><path stroke="#3a414a" stroke-width=".05" fill="#3a414a"/><path d="M8079.3-1969.33h-9.27l4.64-14.27z" fill="#3a414a"/><path d="M8082.02-1967.36h-14.7l7.35-22.63zm-9.27-3.95h3.83l-1.9-5.9z" stroke="#3a414a" stroke-width=".05" fill="#3a414a"/><use xlink:href="#Z" transform="matrix(1,0,0,1,8000.222332507969,-1874.081693159205) translate(0 17.22222222222222)"/><use xlink:href="#aa" transform="matrix(1,0,0,1,8000.222332507969,-1874.081693159205) translate(58.35069444444445 17.22222222222222)"/><use xlink:href="#ab" transform="matrix(1,0,0,1,8000.222332507969,-1874.081693159205) translate(106.35416666666667 17.22222222222222)"/><path d="M8266.56-1848.57h-141.93l-.7.06-.62.14-.57.24-.54.33-.5.42-.4.48-.33.54-.24.58-.14.6-.07.72v105.88h-3.95v-106.04l.1-1.17.28-1.2.48-1.16.66-1.07.8-.95.96-.82 1.07-.65 1.16-.48 1.2-.3 1.18-.1h142.08zm248.12-7.9l-.1 1.18-.3 1.22-.47 1.16-.64 1.07-.8.95-.97.82-1.07.65-1.16.48-1.22.3-1.17.08h-116.5v-3.95h116.34l.7-.05.62-.15.6-.24.52-.33.48-.4.4-.48.34-.54.24-.58.15-.6.06-.72v-110.7h3.95z" stroke="#3a414a" stroke-width=".05" fill="#3a414a"/><path d="M8120.53-1735.1l-3.95-2.96v-.57h3.95z" fill="#3a414a"/><path stroke="#3a414a" stroke-width=".05" fill="#3a414a"/><path d="M8517.34-1969.33h-9.27l4.63-14.27z" fill="#3a414a"/><path d="M8520.06-1967.36h-14.7l7.34-22.63zm-9.27-3.95h3.82l-1.92-5.9z" stroke="#3a414a" stroke-width=".05" fill="#3a414a"/><use xlink:href="#ac" transform="matrix(1,0,0,1,8266.556225066255,-1861.2961362274325) translate(0 17.22222222222222)"/><use xlink:href="#ad" transform="matrix(1,0,0,1,8266.556225066255,-1861.2961362274325) translate(63.203125 17.22222222222222)"/><path d="M8260.13-1652.98h-35.07v-3.95h35.07zm139.2-3.95v3.95h-14.34v-3.95z" stroke="#3a414a" stroke-width=".05" fill="#3a414a"/><path d="M8225.1-1652.98h-2.37l.22-.78.1-1.2-.1-1.2-.22-.77h2.4z" fill="#3a414a"/><path stroke="#3a414a" stroke-width=".05" fill="#3a414a"/><path d="M8415.58-1654.96l-14.26 4.64v-9.27z" fill="#3a414a"/><path d="M8421.97-1654.96l-22.63 7.36v-14.7zm-18.68 1.92l5.9-1.92-5.9-1.9z" stroke="#3a414a" stroke-width=".05" fill="#3a414a"/><use xlink:href="#ae" transform="matrix(1,0,0,1,8260.133382244301,-1678.6188901336825) translate(0 17.22222222222222)"/><use xlink:href="#S" transform="matrix(1,0,0,1,8260.133382244301,-1678.6188901336825) translate(0 43.034722222222214)"/><use xlink:href="#af" transform="matrix(1,0,0,1,8260.133382244301,-1678.6188901336825) translate(46.98784722222222 43.034722222222214)"/><path d="M8166.44-2058.17h255.7" stroke="#3a414a" stroke-width="4" fill="none"/><path d="M8166.5-2056.2h-2.06v-3.95h2.05z" stroke="#3a414a" stroke-width=".05" fill="#3a414a"/><path d="M8438.4-2058.17l-14.27 4.63v-9.27z" stroke="#3a414a" stroke-width="4" fill="#3a414a"/><path d="M8582.53-2041.65h200.2" stroke="#3a414a" stroke-width="4" fill="none"/><path d="M8582.58-2039.67h-2.05v-3.95h2.05z" stroke="#3a414a" stroke-width=".05" fill="#3a414a"/><path d="M8798.98-2041.65l-14.26 4.64v-9.28z" stroke="#3a414a" stroke-width="4" fill="#3a414a"/><path d="M8873.3-1988.07v254.2" stroke="#3a414a" stroke-width="4" fill="none"/><path d="M8875.26-1988.02h-3.95v-2.05h3.96z" stroke="#3a414a" stroke-width=".05" fill="#3a414a"/><path d="M8873.3-1717.6l-4.65-14.27h9.27z" stroke="#3a414a" stroke-width="4" fill="#3a414a"/><path d="M6659.1-2206.75a6 6 0 0 1 6-6h2354.12a6 6 0 0 1 6 6v1070.1a6 6 0 0 1-6 6h-2354.1a6 6 0 0 1-6-6z" stroke="#3a414a" stroke-width="2" fill="#fff"/><path d="M6659.1-2299.15a6 6 0 0 1 6-6h711.8a6 6 0 0 1 6 6v68.4a6 6 0 0 1-6 6h-711.8a6 6 0 0 1-6-6z" fill="#3a414a"/><use xlink:href="#a" transform="matrix(1,0,0,1,6675.111701673497,-2289.1509780484203) translate(0 39.05078125)"/><use xlink:href="#b" transform="matrix(1,0,0,1,6675.111701673497,-2289.1509780484203) translate(90.390625 39.05078125)"/><use xlink:href="#c" transform="matrix(1,0,0,1,6675.111701673497,-2289.1509780484203) translate(188.7109375 39.05078125)"/><use xlink:href="#d" transform="matrix(1,0,0,1,6675.111701673497,-2289.1509780484203) translate(358.10546875 39.05078125)"/><use xlink:href="#e" transform="matrix(1,0,0,1,6675.111701673497,-2289.1509780484203) translate(460.2734375 39.05078125)"/><path d="M6739.1-2126.75a6 6 0 0 1 6-6h229.96a6 6 0 0 1 6 6v170.2a6 6 0 0 1-6 6H6745.1a6 6 0 0 1-6-6z" stroke="#1071e5" stroke-width="4" fill="#cfe4ff"/><use xlink:href="#f" transform="matrix(1,0,0,1,6751.111701673497,-2120.7525405484203) translate(25.731770833333343 41.40277777777778)"/><use xlink:href="#g" transform="matrix(1,0,0,1,6751.111701673497,-2120.7525405484203) translate(80.35416666666667 41.40277777777778)"/><use xlink:href="#h" transform="matrix(1,0,0,1,6751.111701673497,-2120.7525405484203) translate(8.0234375 73.66840277777777)"/><use xlink:href="#i" transform="matrix(1,0,0,1,6751.111701673497,-2120.7525405484203) translate(113.91536458333334 73.66840277777777)"/><use xlink:href="#j" transform="matrix(1,0,0,1,6751.111701673497,-2120.7525405484203) translate(29.068359375 105.93402777777777)"/><use xlink:href="#k" transform="matrix(1,0,0,1,6751.111701673497,-2120.7525405484203) translate(81.26019965277777 105.93402777777777)"/><use xlink:href="#l" transform="matrix(1,0,0,1,6751.111701673497,-2120.7525405484203) translate(106.021484375 105.93402777777777)"/><use xlink:href="#m" transform="matrix(1,0,0,1,6751.111701673497,-2120.7525405484203) translate(35.242404513888886 138.19965277777777)"/><use xlink:href="#n" transform="matrix(1,0,0,1,6751.111701673497,-2120.7525405484203) translate(111.67469618055554 138.19965277777777)"/><path d="M7181.06-2107.1a6 6 0 0 1 6-6h177.8a6 6 0 0 1 6 6v130.92a6 6 0 0 1-6 6h-177.8a6 6 0 0 1-6-6z" stroke="#1071e5" stroke-width="4" fill="#cfe4ff"/><use xlink:href="#o" transform="matrix(1,0,0,1,7193.064826673497,-2101.1123147468084) translate(8.103081597222229 36.40277777777778)"/><use xlink:href="#p" transform="matrix(1,0,0,1,7193.064826673497,-2101.1123147468084) translate(75.89822048611111 36.40277777777778)"/><use xlink:href="#q" transform="matrix(1,0,0,1,7193.064826673497,-2101.1123147468084) translate(20.99370659722223 68.66840277777777)"/><use xlink:href="#r" transform="matrix(1,0,0,1,7193.064826673497,-2101.1123147468084) translate(100.14952256944444 68.66840277777777)"/><use xlink:href="#s" transform="matrix(1,0,0,1,7193.064826673497,-2101.1123147468084) translate(17.21766493055557 100.93402777777777)"/><use xlink:href="#t" transform="matrix(1,0,0,1,7193.064826673497,-2101.1123147468084) translate(105.10828993055556 100.93402777777777)"/><path d="M7665.2-2112.4a8 8 0 0 1 9.6 0l89.57 67.15a4.5 4.5 0 0 1 0 7.2l-89.56 67.17a8 8 0 0 1-9.6 0l-89.54-67.17a4.5 4.5 0 0 1 0-7.2z" stroke="#d916a8" stroke-width="4" fill="#ff80df"/><use xlink:href="#u" transform="matrix(1,0,0,1,7575.858663479053,-2111.01196859626) translate(35.324444444444445 77.99652777777777)"/><use xlink:href="#v" transform="matrix(1,0,0,1,7575.858663479053,-2111.01196859626) translate(106.25543402777778 77.99652777777777)"/><path d="M7210.13-1698.53a6 6 0 0 1 6-6h119.66a6 6 0 0 1 6 6v87.15a6 6 0 0 1-6 6h-119.67a6 6 0 0 1-6-6z" stroke="#1071e5" stroke-width="4" fill="#cfe4ff"/><use xlink:href="#w" transform="matrix(1,0,0,1,7222.130226121357,-1692.534254717016) translate(11.676866319444443 31.02777777777778)"/><use xlink:href="#x" transform="matrix(1,0,0,1,7222.130226121357,-1692.534254717016) translate(36.253689236111114 63.29340277777778)"/><path d="M8030.78-2085.22a6 6 0 0 1 6-6h119.66a6 6 0 0 1 6 6v87.15a6 6 0 0 1-6 6h-119.66a6 6 0 0 1-6-6z" stroke="#1071e5" stroke-width="4" fill="#cfe4ff"/><use xlink:href="#y" transform="matrix(1,0,0,1,8042.779097649134,-2079.2235571379265) translate(24.746527777777782 31.02777777777778)"/><use xlink:href="#z" transform="matrix(1,0,0,1,8042.779097649134,-2079.2235571379265) translate(24.952690972222225 63.29340277777778)"/><path d="M7592.35-1707.44a6 6 0 0 1 6-6h143.32a6 6 0 0 1 6 6v104.97a6 6 0 0 1-6 6h-143.32a6 6 0 0 1-6-6z" stroke="#1071e5" stroke-width="4" fill="#cfe4ff"/><use xlink:href="#A" transform="matrix(1,0,0,1,7604.351719034608,-1701.4425676885521) translate(8.339409722222236 53.49652777777778)"/><path d="M7600.6-1331.28a6 6 0 0 1 6-6h126.83a6 6 0 0 1 6 6v92.55a6 6 0 0 1-6 6H7606.6a6 6 0 0 1-6-6z" stroke="#1071e5" stroke-width="4" fill="#cfe4ff"/><use xlink:href="#B" transform="matrix(1,0,0,1,7612.598246812386,-1325.2834891402413) translate(8.085937500000007 31.65277777777778)"/><use xlink:href="#C" transform="matrix(1,0,0,1,7612.598246812386,-1325.2834891402413) translate(19.853515625 63.91840277777778)"/><use xlink:href="#D" transform="matrix(1,0,0,1,7612.598246812386,-1325.2834891402413) translate(40.41558159722222 63.91840277777778)"/><path d="M8424.06-1715.72a6 6 0 0 1 6-6h165.3a6 6 0 0 1 6 6v121.52a6 6 0 0 1-6 6h-165.3a6 6 0 0 1-6-6z" stroke="#1071e5" stroke-width="4" fill="#cfe4ff"/><use xlink:href="#E" transform="matrix(1,0,0,1,8436.055278062386,-1709.7162222024413) translate(36.1037326388889 45.59027777777778)"/><use xlink:href="#F" transform="matrix(1,0,0,1,8436.055278062386,-1709.7162222024413) translate(8.353081597222229 77.85590277777777)"/><path d="M8091.8-1355.77a8 8 0 0 1 9.6 0l89.56 67.16a4.5 4.5 0 0 1 0 7.2l-89.55 67.16a8 8 0 0 1-9.6 0l-89.54-67.17a4.5 4.5 0 0 1 0-7.2z" stroke="#d916a8" stroke-width="4" fill="#ff80df"/><use xlink:href="#G" transform="matrix(1,0,0,1,8002.45697077072,-1354.3739357065992) translate(30.881085069444445 77.99652777777777)"/><use xlink:href="#v" transform="matrix(1,0,0,1,8002.45697077072,-1354.3739357065992) translate(110.69879340277778 77.99652777777777)"/><path d="M8091.8-1746.94a8 8 0 0 1 9.6 0l117.85 88.38a4.5 4.5 0 0 1 0 7.2l-117.84 88.4a8 8 0 0 1-9.6 0l-117.83-88.4a4.5 4.5 0 0 1 0-7.2z" stroke="#d916a8" stroke-width="4" fill="#ff80df"/><use xlink:href="#H" transform="matrix(1,0,0,1,7974.16595514572,-1745.5409278940992) translate(31.201831597222235 101.15277777777777)"/><use xlink:href="#v" transform="matrix(1,0,0,1,7974.16595514572,-1745.5409278940992) translate(167.378046875 101.15277777777777)"/><path d="M8446.87-2085.22a6 6 0 0 1 6-6h119.66a6 6 0 0 1 6 6v87.15a6 6 0 0 1-6 6h-119.66a6 6 0 0 1-6-6z" stroke="#1071e5" stroke-width="4" fill="#cfe4ff"/><use xlink:href="#I" transform="matrix(1,0,0,1,8458.870677510246,-2079.2235571379265) translate(3.2133246527777857 45.27777777777778)"/><use xlink:href="#v" transform="matrix(1,0,0,1,8458.870677510246,-2079.2235571379265) translate(58.35655381944444 45.27777777777778)"/><path d="M8807.45-2085.22a6 6 0 0 1 6-6h119.67a6 6 0 0 1 6 6v87.15a6 6 0 0 1-6 6h-119.67a6 6 0 0 1-6-6z" stroke="#1071e5" stroke-width="4" fill="#cfe4ff"/><use xlink:href="#J" transform="matrix(1,0,0,1,8819.454444871357,-2079.2235571379265) translate(29.55338541666667 31.02777777777778)"/><use xlink:href="#z" transform="matrix(1,0,0,1,8819.454444871357,-2079.2235571379265) translate(24.952690972222225 63.29340277777778)"/><path d="M8801.35-1703.13a6 6 0 0 1 6-6h131.87a6 6 0 0 1 6 6v96.35a6 6 0 0 1-6 6h-131.87a6 6 0 0 1-6-6z" stroke="#1071e5" stroke-width="4" fill="#cfe4ff"/><use xlink:href="#K" transform="matrix(1,0,0,1,8813.349114867942,-1697.132095830699) translate(8.063151041666671 34.80902777777778)"/><use xlink:href="#L" transform="matrix(1,0,0,1,8813.349114867942,-1697.132095830699) translate(2.6920572916666714 67.07465277777777)"/><path d="M6985.06-2041.65h171.27" stroke="#3a414a" stroke-width="4" fill="none"/><path d="M6985.12-2039.67h-2.06v-3.95h2.06z" stroke="#3a414a" stroke-width=".05" fill="#3a414a"/><path d="M7172.6-2041.65l-14.27 4.64v-9.28z" stroke="#3a414a" stroke-width="4" fill="#3a414a"/><path d="M7374.86-2058.17h191.96" stroke="#3a414a" stroke-width="4" fill="none"/><path d="M7374.9-2056.2h-2.04v-3.95h2.05z" stroke="#3a414a" stroke-width=".05" fill="#3a414a"/><path d="M7583.1-2058.17l-14.28 4.63v-9.27z" stroke="#3a414a" stroke-width="4" fill="#3a414a"/><path d="M7275.96-1966.18v236.9" stroke="#3a414a" stroke-width="4" fill="none"/><path d="M7277.94-1966.13H7274v-2.05h3.94z" stroke="#3a414a" stroke-width=".05" fill="#3a414a"/><path d="M7275.96-1713l-4.63-14.27h9.27z" stroke="#3a414a" stroke-width="4" fill="#3a414a"/><path d="M8091.86-2174.64l1.22.3 1.15.48 1.07.65.95.8.82.96.65 1.06.48 1.16.3 1.22.1 1.17v50.87h-3.96v-50.72l-.06-.7-.15-.6-.24-.6-.34-.53-.4-.5-.5-.4-.52-.33-.6-.24-.6-.15-.7-.06H7941.8v-3.95h148.9zm-244.24 3.86H7676.1l-.72.06-.6.14-.6.25-.53.33-.48.4-.4.5-.34.52-.24.6-.16.6-.05.7v48.66h-3.96v-48.8l.1-1.18.28-1.22.48-1.16.66-1.06.8-.96.96-.8 1.07-.66 1.15-.48 1.2-.3 1.2-.1h171.67z" stroke="#3a414a" stroke-width=".05" fill="#3a414a"/><path d="M7672-2115.8l-.7-.13-1.3-.1-1.27.1-.7.13v-2.27h3.96z" fill="#3a414a"/><path stroke="#3a414a" stroke-width=".05" fill="#3a414a"/><path d="M8096.6-2099.7l-4.63-14.26h9.28z" fill="#3a414a"/><path d="M8096.6-2093.3l-7.34-22.64h14.7zm-1.9-18.7l1.9 5.9 1.93-5.9z" stroke="#3a414a" stroke-width=".05" fill="#3a414a"/><g><use xlink:href="#M" transform="matrix(1,0,0,1,7847.6200841587315,-2183.5077488817537) translate(0 17.22222222222222)"/><use xlink:href="#N" transform="matrix(1,0,0,1,7847.6200841587315,-2183.5077488817537) translate(51.640625 17.22222222222222)"/></g><path d="M7672-1738.18h-3.96v-92.42h3.95zm0-113.93l-3.96-.02v-113.16h3.95z" stroke="#3a414a" stroke-width=".05" fill="#3a414a"/><path d="M7668.73-1967.36l1.28.08 1.3-.08.7-.13v2.27h-3.96v-2.26z" fill="#3a414a"/><path stroke="#3a414a" stroke-width=".05" fill="#3a414a"/><path d="M7670-1721.9l-4.62-14.28h9.27z" fill="#3a414a"/><path d="M7670-1715.52l-7.34-22.64h14.7zm-1.9-18.7l1.9 5.9 1.93-5.9z" stroke="#3a414a" stroke-width=".05" fill="#3a414a"/><g><use xlink:href="#O" transform="matrix(1,0,0,1,7630.185920423497,-1852.1151529040233) translate(0 17.22222222222222)"/><use xlink:href="#N" transform="matrix(1,0,0,1,7630.185920423497,-1852.1151529040233) translate(37.11805555555556 17.22222222222222)"/></g><path d="M7871.14-1290.93l-.1 1.17-.28 1.22-.48 1.15-.66 1.08-.8.95-.96.82-1.07.65-1.17.48-1.22.3-1.16.1h-99.08v-3.96h98.93l.7-.06.6-.15.6-.23.53-.33.48-.4.42-.5.33-.52.24-.6.14-.6.05-.7v-348.12h3.94zm-6.73-752.6l1.23.3 1.16.47 1.06.66.95.8.82.96.66 1.07.48 1.16.3 1.2.08 1.18v375h-3.95v-374.85l-.06-.7-.15-.62-.25-.57-.33-.54-.4-.5-.5-.4-.53-.33-.6-.24-.6-.15-.7-.05h-92.93v-3.95h93.07z" stroke="#3a414a" stroke-width=".05" fill="#3a414a"/><path d="M7770.23-2039.67h-2.4l.23-.78.1-1.2-.1-1.2-.22-.77h2.4z" fill="#3a414a"/><path stroke="#3a414a" stroke-width=".05" fill="#3a414a"/><path d="M7762.16-1280.37l-14.26-4.64 14.26-4.64z" fill="#3a414a"/><path d="M7764.14-1277.65l-22.63-7.36 22.64-7.36zm-9.85-7.36l5.9 1.9v-3.83z" stroke="#3a414a" stroke-width=".05" fill="#3a414a"/><g><use xlink:href="#P" transform="matrix(1,0,0,1,7817.477587090164,-1660.708814759895) translate(0 17.22222222222222)"/><use xlink:href="#Q" transform="matrix(1,0,0,1,7817.477587090164,-1660.708814759895) translate(31.657986111111114 17.22222222222222)"/></g><path d="M7587.56-2023.15h-110.62l-.7.06-.62.16-.6.24-.52.33-.48.4-.4.5-.34.52-.24.6-.15.6-.07.7v842.33l.06.7.14.62.24.58.33.54.42.48.48.4.53.34.6.24.6.15.7.05H7613v3.95h-136.22l-1.17-.1-1.2-.28-1.16-.48-1.07-.66-.95-.8-.82-.95-.65-1.07-.48-1.16-.3-1.2-.1-1.2v-842.62l.1-1.17.3-1.22.48-1.14.65-1.07.82-.97.95-.8 1.06-.66 1.16-.48 1.2-.3 1.18-.1h110.78zm949.06 846.58l-.1 1.17-.28 1.22-.48 1.16-.66 1.07-.8.95-.96.8-1.07.67-1.16.48-1.2.3-1.18.08h-693.84v-3.95h693.7l.7-.05.6-.15.6-.24.53-.33.5-.4.4-.48.33-.54.24-.58.15-.62.05-.7v-100.14h3.95zm0-121.8h-3.95v-265.1h3.95z" stroke="#3a414a" stroke-width=".05" fill="#3a414a"/><path d="M7592.2-2023.15h-4.7v-3.5z" fill="#3a414a"/><path stroke="#3a414a" stroke-width=".05" fill="#3a414a"/><path d="M8539.28-1565.46H8530l4.65-14.27z" fill="#3a414a"/><path d="M8542-1563.5h-14.7l7.35-22.62zm-9.27-3.94h3.83l-1.9-5.9z" stroke="#3a414a" stroke-width=".05" fill="#3a414a"/><g><use xlink:href="#R" transform="matrix(1,0,0,1,7612.998883036131,-1181.3986752899325) translate(0 17.22222222222222)"/><use xlink:href="#S" transform="matrix(1,0,0,1,7612.998883036131,-1181.3986752899325) translate(85.34722222222221 17.22222222222222)"/><use xlink:href="#T" transform="matrix(1,0,0,1,7612.998883036131,-1181.3986752899325) translate(132.33506944444443 17.22222222222222)"/><use xlink:href="#U" transform="matrix(1,0,0,1,7612.998883036131,-1181.3986752899325) translate(192.56944444444443 17.22222222222222)"/></g><path d="M8326.03-1465.3l-.1 1.17-.28 1.22-.48 1.15-.66 1.07-.8.95-.95.8-1.07.67-1.16.48-1.22.3-1.17.08H8102.7l-.72.06-.6.14-.6.25-.53.33-.48.4-.4.48-.34.54-.24.58-.16.62-.05.7v91.92h-3.96v-92.07l.1-1.17.28-1.22.48-1.16.65-1.07.82-.95.95-.8 1.07-.66 1.14-.48 1.22-.3 1.17-.1h215.45l.7-.05.62-.15.58-.24.54-.32.48-.4.4-.5.34-.53.24-.58.15-.6.05-.72v-165.85h3.95zm0-213.32h-3.95v-45.63h3.95zm0-67.14h-3.95v-94.03h3.95zM8319.3-2027l1.22.3 1.16.47 1.07.65.95.8.8.97.67 1.06.48 1.15.3 1.23.08 1.17v157.9h-3.95v-157.74l-.06-.7-.14-.62-.24-.6-.33-.52-.4-.48-.48-.4-.54-.34-.58-.24-.62-.15-.7-.05h-130.8v-3.95h130.95z" stroke="#3a414a" stroke-width=".05" fill="#3a414a"/><path d="M8098.6-1359.16l-.7-.13-1.3-.08-1.27.1-.7.12v-2.27h3.96z" fill="#3a414a"/><path stroke="#3a414a" stroke-width=".05" fill="#3a414a"/><path d="M8185.18-2020.5l-14.27-4.62 14.28-4.64z" fill="#3a414a"/><path d="M8187.15-2017.77l-22.63-7.35 22.63-7.36zm-9.84-7.35l5.9 1.92v-3.84z" stroke="#3a414a" stroke-width=".05" fill="#3a414a"/><g><use xlink:href="#V" transform="matrix(1,0,0,1,8285.331319729052,-1745.7552083333333) translate(0 17.22222222222222)"/></g><path d="M8367.02-1283.03h-170.25v-3.95h170.25zm125.7-15.34h-3.94v-265.1h3.95z" stroke="#3a414a" stroke-width=".05" fill="#3a414a"/><path d="M8196.82-1283.03h-2.38l.22-.78.1-1.2-.1-1.2-.22-.78h2.38z" fill="#3a414a"/><path stroke="#3a414a" stroke-width=".05" fill="#3a414a"/><path d="M8495.4-1565.46h-9.28l4.64-14.27z" fill="#3a414a"/><path d="M8498.1-1563.5h-14.7l7.36-22.62zm-9.26-3.94h3.83l-1.9-5.9z" stroke="#3a414a" stroke-width=".05" fill="#3a414a"/><g><use xlink:href="#W" transform="matrix(1,0,0,1,8367.021377646859,-1298.3661454576588) translate(0 17.22222222222222)"/><use xlink:href="#X" transform="matrix(1,0,0,1,8367.021377646859,-1298.3661454576588) translate(44.28819444444444 17.22222222222222)"/><use xlink:href="#Y" transform="matrix(1,0,0,1,8367.021377646859,-1298.3661454576588) translate(110.9375 17.22222222222222)"/><use xlink:href="#T" transform="matrix(1,0,0,1,8367.021377646859,-1298.3661454576588) translate(157.92534722222223 17.22222222222222)"/><use xlink:href="#U" transform="matrix(1,0,0,1,8367.021377646859,-1298.3661454576588) translate(218.15972222222223 17.22222222222222)"/></g><path d="M7817.48-1652.98h-65.8v-3.95h65.8zm129.94-3.95v3.95h-26.57v-3.95zm-74.2-4.98l1.2 1.2h-10.5l1.2-1.2 4.05-1.1z" stroke="#3a414a" stroke-width=".05" fill="#3a414a"/><path d="M7751.72-1652.98h-2.05v-3.95h2.05z" fill="#3a414a"/><path stroke="#3a414a" stroke-width=".05" fill="#3a414a"/><path d="M7963.7-1654.96l-14.28 4.64v-9.27z" fill="#3a414a"/><path d="M7970.08-1654.96l-22.64 7.36v-14.7zm-18.7 1.92l5.9-1.92-5.9-1.9zM8076.64-1738.58h-3.95v-114h3.94zm0-135.5h-3.95v-93.25h3.94z" stroke="#3a414a" stroke-width=".05" fill="#3a414a"/><path d="M8076.64-1738.06l-3.95 2.96v-3.53h3.94z" fill="#3a414a"/><path stroke="#3a414a" stroke-width=".05" fill="#3a414a"/><path d="M8079.3-1969.33h-9.27l4.64-14.27z" fill="#3a414a"/><path d="M8082.02-1967.36h-14.7l7.35-22.63zm-9.27-3.95h3.83l-1.9-5.9z" stroke="#3a414a" stroke-width=".05" fill="#3a414a"/><g><use xlink:href="#Z" transform="matrix(1,0,0,1,8000.222332507969,-1874.081693159205) translate(0 17.22222222222222)"/><use xlink:href="#aa" transform="matrix(1,0,0,1,8000.222332507969,-1874.081693159205) translate(58.35069444444445 17.22222222222222)"/><use xlink:href="#ab" transform="matrix(1,0,0,1,8000.222332507969,-1874.081693159205) translate(106.35416666666667 17.22222222222222)"/></g><path d="M8266.56-1848.57h-141.93l-.7.06-.62.14-.57.24-.54.33-.5.42-.4.48-.33.54-.24.58-.14.6-.07.72v105.88h-3.95v-106.04l.1-1.17.28-1.2.48-1.16.66-1.07.8-.95.96-.82 1.07-.65 1.16-.48 1.2-.3 1.18-.1h142.08zm248.12-7.9l-.1 1.18-.3 1.22-.47 1.16-.64 1.07-.8.95-.97.82-1.07.65-1.16.48-1.22.3-1.17.08h-116.5v-3.95h116.34l.7-.05.62-.15.6-.24.52-.33.48-.4.4-.48.34-.54.24-.58.15-.6.06-.72v-110.7h3.95z" stroke="#3a414a" stroke-width=".05" fill="#3a414a"/><path d="M8120.53-1735.1l-3.95-2.96v-.57h3.95z" fill="#3a414a"/><path stroke="#3a414a" stroke-width=".05" fill="#3a414a"/><path d="M8517.34-1969.33h-9.27l4.63-14.27z" fill="#3a414a"/><path d="M8520.06-1967.36h-14.7l7.34-22.63zm-9.27-3.95h3.82l-1.92-5.9z" stroke="#3a414a" stroke-width=".05" fill="#3a414a"/><g><use xlink:href="#ac" transform="matrix(1,0,0,1,8266.556225066255,-1861.2961362274325) translate(0 17.22222222222222)"/><use xlink:href="#ad" transform="matrix(1,0,0,1,8266.556225066255,-1861.2961362274325) translate(63.203125 17.22222222222222)"/></g><path d="M8260.13-1652.98h-35.07v-3.95h35.07zm139.2-3.95v3.95h-14.34v-3.95z" stroke="#3a414a" stroke-width=".05" fill="#3a414a"/><path d="M8225.1-1652.98h-2.37l.22-.78.1-1.2-.1-1.2-.22-.77h2.4z" fill="#3a414a"/><path stroke="#3a414a" stroke-width=".05" fill="#3a414a"/><path d="M8415.58-1654.96l-14.26 4.64v-9.27z" fill="#3a414a"/><path d="M8421.97-1654.96l-22.63 7.36v-14.7zm-18.68 1.92l5.9-1.92-5.9-1.9z" stroke="#3a414a" stroke-width=".05" fill="#3a414a"/><g><use xlink:href="#ae" transform="matrix(1,0,0,1,8260.133382244301,-1678.6188901336825) translate(0 17.22222222222222)"/><use xlink:href="#S" transform="matrix(1,0,0,1,8260.133382244301,-1678.6188901336825) translate(0 43.034722222222214)"/><use xlink:href="#af" transform="matrix(1,0,0,1,8260.133382244301,-1678.6188901336825) translate(46.98784722222222 43.034722222222214)"/></g><path d="M8166.44-2058.17h255.7" stroke="#3a414a" stroke-width="4" fill="none"/><path d="M8166.5-2056.2h-2.06v-3.95h2.05z" stroke="#3a414a" stroke-width=".05" fill="#3a414a"/><path d="M8438.4-2058.17l-14.27 4.63v-9.27z" stroke="#3a414a" stroke-width="4" fill="#3a414a"/><path d="M8582.53-2041.65h200.2" stroke="#3a414a" stroke-width="4" fill="none"/><path d="M8582.58-2039.67h-2.05v-3.95h2.05z" stroke="#3a414a" stroke-width=".05" fill="#3a414a"/><path d="M8798.98-2041.65l-14.26 4.64v-9.28z" stroke="#3a414a" stroke-width="4" fill="#3a414a"/><path d="M8873.3-1988.07v254.2" stroke="#3a414a" stroke-width="4" fill="none"/><path d="M8875.26-1988.02h-3.95v-2.05h3.96z" stroke="#3a414a" stroke-width=".05" fill="#3a414a"/><path d="M8873.3-1717.6l-4.65-14.27h9.27z" stroke="#3a414a" stroke-width="4" fill="#3a414a"/><defs><path fill="#fff" d="M180 0v-1490h270l367 940c28 72 75 218 110 339 35-117 81-264 110-339l362-940h271V0h-187c2-448-5-837 7-1287-157 497-311 829-483 1287H842C666-458 514-784 354-1284c12 438 5 843 7 1284H180" id="ag"/><path fill="#fff" d="M158 0v-1118h180V0H158zm91-1301c-68 0-125-53-125-119s57-119 125-119c69 0 126 53 126 119s-57 119-126 119" id="ah"/><path fill="#fff" d="M338-670V0H158v-1118h173l1 207c72-158 192-221 342-221 226 0 378 139 378 422V0H872v-695c0-172-96-275-252-275-161 0-282 109-282 300" id="ai"/><g id="a"><use transform="matrix(0.01953125,0,0,0.01953125,0,0)" xlink:href="#ag"/><use transform="matrix(0.01953125,0,0,0.01953125,36.1328125,0)" xlink:href="#ah"/><use transform="matrix(0.01953125,0,0,0.01953125,45.8203125,0)" xlink:href="#ai"/><use transform="matrix(0.01953125,0,0,0.01953125,69.453125,0)" xlink:href="#ah"/></g><path fill="#fff" d="M645 0H180v-1490h484c435 0 692 280 692 742 0 466-257 748-711 748zM370-168h263c363 0 539-218 539-580 0-358-176-574-521-574H370v1154" id="aj"/><path fill="#fff" d="M471 26C259 26 90-98 90-318c0-256 228-303 435-329 202-27 287-16 287-108 0-139-79-219-234-219-161 0-248 86-283 164l-173-57c86-203 278-265 451-265 150 0 419 46 419 395V0H815v-152h-12C765-73 660 26 471 26zm31-159c199 0 310-134 310-271v-155c-30 35-226 55-295 64-131 17-246 59-246 186 0 116 97 176 231 176" id="ak"/><path fill="#fff" d="M598-1118v154H368v674c0 100 37 144 132 144 23 0 62-6 92-12L629-6c-37 13-88 20-134 20-193 0-307-107-307-290v-688H20v-154h168v-266h180v266h230" id="al"/><g id="b"><use transform="matrix(0.01953125,0,0,0.01953125,0,0)" xlink:href="#aj"/><use transform="matrix(0.01953125,0,0,0.01953125,28.8671875,0)" xlink:href="#ak"/><use transform="matrix(0.01953125,0,0,0.01953125,51.328125,0)" xlink:href="#al"/><use transform="matrix(0.01953125,0,0,0.01953125,64.609375,0)" xlink:href="#ak"/></g><path fill="#fff" d="M180 0v-1490h510c348 0 508 209 508 474 0 266-160 477-507 477H370V0H180zm190-706h312c236 0 327-133 327-310 0-176-91-307-329-307H370v617" id="am"/><path fill="#fff" d="M338-1490V0H158v-1490h180" id="an"/><path fill="#fff" d="M678-1118v154H420V0H240v-964H20v-154h220v-149c0-194 155-293 318-293 85 0 141 18 168 30l-50 154c-19-6-47-17-97-17-111 0-159 58-159 166v109h258" id="ao"/><path fill="#fff" d="M613 24c-304 0-509-231-509-576 0-350 205-580 509-580 305 0 511 230 511 580 0 345-206 576-511 576zm0-161c226 0 329-195 329-415 0-222-103-419-329-419-223 0-326 196-326 419 0 220 103 415 326 415" id="ap"/><path fill="#fff" d="M158 0v-1118h174v172h12c41-113 157-188 290-188 26 0 70 2 91 3v181c-11-2-60-10-108-10-161 0-279 109-279 260V0H158" id="aq"/><path fill="#fff" d="M158 0v-1118h175l1 205c55-151 181-225 313-225 147 0 245 90 285 228 53-141 190-228 352-228 194 0 352 125 352 384V0h-181v-749c0-161-105-225-225-225-151 0-243 103-243 244V0H807v-767c0-124-93-207-219-207-131 0-250 92-250 270V0H158" id="ar"/><g id="c"><use transform="matrix(0.01953125,0,0,0.01953125,0,0)" xlink:href="#am"/><use transform="matrix(0.01953125,0,0,0.01953125,25.546875,0)" xlink:href="#an"/><use transform="matrix(0.01953125,0,0,0.01953125,35.234375,0)" xlink:href="#ak"/><use transform="matrix(0.01953125,0,0,0.01953125,57.6953125,0)" xlink:href="#al"/><use transform="matrix(0.01953125,0,0,0.01953125,69.8046875,0)" xlink:href="#ao"/><use transform="matrix(0.01953125,0,0,0.01953125,83.4375,0)" xlink:href="#ap"/><use transform="matrix(0.01953125,0,0,0.01953125,107.421875,0)" xlink:href="#aq"/><use transform="matrix(0.01953125,0,0,0.01953125,123.10546875,0)" xlink:href="#ar"/></g><path fill="#fff" d="M783 20c-382 0-661-292-661-764 0-473 279-766 661-766 302 0 548 182 601 489h-190c-42-204-217-313-411-313-268 0-476 208-476 590 0 381 209 588 476 588 195 0 369-110 411-313h190c-52 303-296 489-601 489" id="as"/><path fill="#fff" d="M628 24c-324 0-524-230-524-574 0-343 198-582 503-582 237 0 487 146 487 559v75H286c9 234 145 362 343 362 132 0 231-58 273-172l174 48C1024-91 857 24 628 24zM287-650h624c-17-190-120-322-304-322-192 0-309 151-320 322" id="at"/><g id="d"><use transform="matrix(0.01953125,0,0,0.01953125,0,0)" xlink:href="#as"/><use transform="matrix(0.01953125,0,0,0.01953125,29.21875,0)" xlink:href="#ap"/><use transform="matrix(0.01953125,0,0,0.01953125,53.203125,0)" xlink:href="#aq"/><use transform="matrix(0.01953125,0,0,0.01953125,67.59765625,0)" xlink:href="#at"/></g><path fill="#fff" d="M52 0l541-1490h220L1361 0h-200l-149-416H398L254 0H52zm404-582h497c-103-290-145-390-251-756-108 377-145 460-246 756" id="au"/><path fill="#fff" d="M613 24c-304 0-509-231-509-576 0-350 205-580 509-580 216 0 392 114 453 309l-173 49c-33-115-133-197-280-197-223 0-326 196-326 419 0 220 103 415 326 415 150 0 252-85 285-206l172 49C1010-95 832 24 613 24" id="av"/><path fill="#fff" d="M338-670V0H158v-1490h180v566c73-149 190-208 336-208 226 0 379 139 379 422V0H872v-695c0-172-96-275-252-275-161 0-282 109-282 300" id="aw"/><path fill="#fff" d="M537 14c-226 0-379-139-379-422v-710h180v695c0 172 97 275 253 275 160 0 281-109 281-300v-670h181V0H879v-209C806-46 684 14 537 14" id="ax"/><g id="e"><use transform="matrix(0.01953125,0,0,0.01953125,0,0)" xlink:href="#au"/><use transform="matrix(0.01953125,0,0,0.01953125,27.59765625,0)" xlink:href="#aq"/><use transform="matrix(0.01953125,0,0,0.01953125,41.9921875,0)" xlink:href="#av"/><use transform="matrix(0.01953125,0,0,0.01953125,64.84375,0)" xlink:href="#aw"/><use transform="matrix(0.01953125,0,0,0.01953125,88.49609375,0)" xlink:href="#ah"/><use transform="matrix(0.01953125,0,0,0.01953125,98.18359375,0)" xlink:href="#al"/><use transform="matrix(0.01953125,0,0,0.01953125,110.87890625,0)" xlink:href="#at"/><use transform="matrix(0.01953125,0,0,0.01953125,134.19921875,0)" xlink:href="#av"/><use transform="matrix(0.01953125,0,0,0.01953125,157.05078125,0)" xlink:href="#al"/><use transform="matrix(0.01953125,0,0,0.01953125,170.13671875,0)" xlink:href="#ax"/><use transform="matrix(0.01953125,0,0,0.01953125,193.7890625,0)" xlink:href="#aq"/><use transform="matrix(0.01953125,0,0,0.01953125,208.18359375,0)" xlink:href="#at"/></g><path d="M645 0H180v-1490h484c435 0 692 280 692 742 0 466-257 748-711 748zM370-168h263c363 0 539-218 539-580 0-358-176-574-521-574H370v1154" id="ay"/><path d="M471 26C259 26 90-98 90-318c0-256 228-303 435-329 202-27 287-16 287-108 0-139-79-219-234-219-161 0-248 86-283 164l-173-57c86-203 278-265 451-265 150 0 419 46 419 395V0H815v-152h-12C765-73 660 26 471 26zm31-159c199 0 310-134 310-271v-155c-30 35-226 55-295 64-131 17-246 59-246 186 0 116 97 176 231 176" id="az"/><path d="M598-1118v154H368v674c0 100 37 144 132 144 23 0 62-6 92-12L629-6c-37 13-88 20-134 20-193 0-307-107-307-290v-688H20v-154h168v-266h180v266h230" id="aA"/><g id="f"><use transform="matrix(0.010850694444444444,0,0,0.010850694444444444,0,0)" xlink:href="#ay"/><use transform="matrix(0.010850694444444444,0,0,0.010850694444444444,16.03732638888889,0)" xlink:href="#az"/><use transform="matrix(0.010850694444444444,0,0,0.010850694444444444,28.515625,0)" xlink:href="#aA"/><use transform="matrix(0.010850694444444444,0,0,0.010850694444444444,35.89409722222222,0)" xlink:href="#az"/></g><path d="M789 20c-398 0-667-293-667-764 0-473 273-766 655-766 315 0 558 198 612 487h-196c-61-191-204-311-415-311-262 0-471 207-471 590 0 380 208 588 482 588 249 0 420-165 425-427H828v-166h572v163c0 370-256 606-611 606" id="aB"/><path d="M628 24c-324 0-524-230-524-574 0-343 198-582 503-582 237 0 487 146 487 559v75H286c9 234 145 362 343 362 132 0 231-58 273-172l174 48C1024-91 857 24 628 24zM287-650h624c-17-190-120-322-304-322-192 0-309 151-320 322" id="aC"/><path d="M338-670V0H158v-1118h173l1 207c72-158 192-221 342-221 226 0 378 139 378 422V0H872v-695c0-172-96-275-252-275-161 0-282 109-282 300" id="aD"/><path d="M158 0v-1118h174v172h12c41-113 157-188 290-188 26 0 70 2 91 3v181c-11-2-60-10-108-10-161 0-279 109-279 260V0H158" id="aE"/><path d="M613 24c-304 0-509-231-509-576 0-350 205-580 509-580 305 0 511 230 511 580 0 345-206 576-511 576zm0-161c226 0 329-195 329-415 0-222-103-419-329-419-223 0-326 196-326 419 0 220 103 415 326 415" id="aF"/><path d="M128 359l88-567h206L266 359H128zM323-796c-75 0-135-60-135-135s60-135 135-135 135 60 135 135-60 135-135 135" id="aG"/><g id="g"><use transform="matrix(0.010850694444444444,0,0,0.010850694444444444,0,0)" xlink:href="#aB"/><use transform="matrix(0.010850694444444444,0,0,0.010850694444444444,16.57986111111111,0)" xlink:href="#aC"/><use transform="matrix(0.010850694444444444,0,0,0.010850694444444444,29.535590277777775,0)" xlink:href="#aD"/><use transform="matrix(0.010850694444444444,0,0,0.010850694444444444,42.66493055555556,0)" xlink:href="#aC"/><use transform="matrix(0.010850694444444444,0,0,0.010850694444444444,55.62065972222222,0)" xlink:href="#aE"/><use transform="matrix(0.010850694444444444,0,0,0.010850694444444444,63.986545138888886,0)" xlink:href="#az"/><use transform="matrix(0.010850694444444444,0,0,0.010850694444444444,76.46484375,0)" xlink:href="#aA"/><use transform="matrix(0.010850694444444444,0,0,0.010850694444444444,83.51779513888889,0)" xlink:href="#aF"/><use transform="matrix(0.010850694444444444,0,0,0.010850694444444444,96.84244791666666,0)" xlink:href="#aE"/><use transform="matrix(0.010850694444444444,0,0,0.010850694444444444,105.20833333333333,0)" xlink:href="#aG"/></g><path d="M180 0v-1490h510c348 0 508 209 508 474 0 266-160 477-507 477H370V0H180zm190-706h312c236 0 327-133 327-310 0-176-91-307-329-307H370v617" id="aH"/><path d="M577 24c-279 0-473-224-473-580 0-354 195-576 474-576 218 0 287 134 324 193h14v-551h180V0H922v-173h-20C865-111 790 24 577 24zm27-161c203 0 314-172 314-421 0-247-108-413-314-413-212 0-317 181-317 413 0 235 108 421 317 421" id="aI"/><path d="M537 14c-226 0-379-139-379-422v-710h180v695c0 172 97 275 253 275 160 0 281-109 281-300v-670h181V0H879v-209C806-46 684 14 537 14" id="aJ"/><path d="M613 24c-304 0-509-231-509-576 0-350 205-580 509-580 216 0 392 114 453 309l-173 49c-33-115-133-197-280-197-223 0-326 196-326 419 0 220 103 415 326 415 150 0 252-85 285-206l172 49C1010-95 832 24 613 24" id="aK"/><path d="M538 24C308 24 148-78 108-271l171-41c32 123 123 178 257 178 156 0 256-77 256-169 0-77-54-128-164-154l-186-44c-203-48-300-148-300-305 0-192 176-326 414-326 230 0 351 112 402 269l-163 42c-31-80-94-158-238-158-133 0-233 69-233 162 0 83 57 129 188 160l169 40c203 48 298 149 298 302 0 196-179 339-441 339" id="aL"/><g id="h"><use transform="matrix(0.010850694444444444,0,0,0.010850694444444444,0,0)" xlink:href="#aH"/><use transform="matrix(0.010850694444444444,0,0,0.010850694444444444,14.192708333333332,0)" xlink:href="#aE"/><use transform="matrix(0.010850694444444444,0,0,0.010850694444444444,22.189670138888886,0)" xlink:href="#aF"/><use transform="matrix(0.010850694444444444,0,0,0.010850694444444444,35.514322916666664,0)" xlink:href="#aI"/><use transform="matrix(0.010850694444444444,0,0,0.010850694444444444,49.12109375,0)" xlink:href="#aJ"/><use transform="matrix(0.010850694444444444,0,0,0.010850694444444444,62.26128472222222,0)" xlink:href="#aK"/><use transform="matrix(0.010850694444444444,0,0,0.010850694444444444,74.95659722222223,0)" xlink:href="#aC"/><use transform="matrix(0.010850694444444444,0,0,0.010850694444444444,87.9123263888889,0)" xlink:href="#aL"/></g><path d="M140 405l46-156c120 36 205 19 263-150l32-93L54-1118h197c107 313 237 620 324 950 87-331 219-637 326-950h196L606 167c-68 178-176 259-334 259-64 0-113-12-132-21" id="aM"/><path d="M338-670V0H158v-1490h180v566c73-149 190-208 336-208 226 0 379 139 379 422V0H872v-695c0-172-96-275-252-275-161 0-282 109-282 300" id="aN"/><path d="M158 0v-1118h180V0H158zm91-1301c-68 0-125-53-125-119s57-119 125-119c69 0 126 53 126 119s-57 119-126 119" id="aO"/><g id="i"><use transform="matrix(0.010850694444444444,0,0,0.010850694444444444,0,0)" xlink:href="#aL"/><use transform="matrix(0.010850694444444444,0,0,0.010850694444444444,11.729600694444445,0)" xlink:href="#aM"/><use transform="matrix(0.010850694444444444,0,0,0.010850694444444444,24.21875,0)" xlink:href="#aD"/><use transform="matrix(0.010850694444444444,0,0,0.010850694444444444,37.34809027777778,0)" xlink:href="#aA"/><use transform="matrix(0.010850694444444444,0,0,0.010850694444444444,44.61805555555556,0)" xlink:href="#aN"/><use transform="matrix(0.010850694444444444,0,0,0.010850694444444444,57.75824652777778,0)" xlink:href="#aC"/><use transform="matrix(0.010850694444444444,0,0,0.010850694444444444,70.71397569444444,0)" xlink:href="#aA"/><use transform="matrix(0.010850694444444444,0,0,0.010850694444444444,77.98394097222221,0)" xlink:href="#aO"/><use transform="matrix(0.010850694444444444,0,0,0.010850694444444444,83.36588541666666,0)" xlink:href="#aK"/></g><g id="j"><use transform="matrix(0.010850694444444444,0,0,0.010850694444444444,0,0)" xlink:href="#aI"/><use transform="matrix(0.010850694444444444,0,0,0.010850694444444444,13.606770833333332,0)" xlink:href="#az"/><use transform="matrix(0.010850694444444444,0,0,0.010850694444444444,26.085069444444443,0)" xlink:href="#aA"/><use transform="matrix(0.010850694444444444,0,0,0.010850694444444444,33.463541666666664,0)" xlink:href="#az"/></g><g id="k"><use transform="matrix(0.010850694444444444,0,0,0.010850694444444444,0,0)" xlink:href="#aO"/><use transform="matrix(0.010850694444444444,0,0,0.010850694444444444,5.381944444444445,0)" xlink:href="#aD"/></g><path d="M158 0v-1118h175l1 205c55-151 181-225 313-225 147 0 245 90 285 228 53-141 190-228 352-228 194 0 352 125 352 384V0h-181v-749c0-161-105-225-225-225-151 0-243 103-243 244V0H807v-767c0-124-93-207-219-207-131 0-250 92-250 270V0H158" id="aP"/><path d="M338-1490V0H158v-1490h180" id="aQ"/><path d="M158 418v-1536h174v179h20c37-59 106-193 324-193 279 0 474 222 474 576 0 356-194 580-473 580-213 0-288-135-325-197h-14v591H158zm492-555c209 0 317-186 317-421 0-232-105-413-317-413-206 0-314 166-314 413 0 249 111 421 314 421" id="aR"/><g id="l"><use transform="matrix(0.010850694444444444,0,0,0.010850694444444444,0,0)" xlink:href="#aP"/><use transform="matrix(0.010850694444444444,0,0,0.010850694444444444,19.466145833333332,0)" xlink:href="#aJ"/><use transform="matrix(0.010850694444444444,0,0,0.010850694444444444,32.60633680555556,0)" xlink:href="#aQ"/><use transform="matrix(0.010850694444444444,0,0,0.010850694444444444,38.313802083333336,0)" xlink:href="#aA"/><use transform="matrix(0.010850694444444444,0,0,0.010850694444444444,45.58376736111111,0)" xlink:href="#aO"/><use transform="matrix(0.010850694444444444,0,0,0.010850694444444444,50.96571180555556,0)" xlink:href="#aR"/><use transform="matrix(0.010850694444444444,0,0,0.010850694444444444,64.57248263888889,0)" xlink:href="#aQ"/><use transform="matrix(0.010850694444444444,0,0,0.010850694444444444,69.95442708333333,0)" xlink:href="#aC"/></g><path d="M1096 418H916v-591h-14C865-111 790 24 577 24c-279 0-473-224-473-580 0-354 195-576 474-576 218 0 287 134 324 193h20v-179h174V418zM604-137c203 0 314-172 314-421 0-247-108-413-314-413-212 0-317 181-317 413 0 235 108 421 317 421" id="aS"/><g id="m"><use transform="matrix(0.010850694444444444,0,0,0.010850694444444444,0,0)" xlink:href="#aS"/><use transform="matrix(0.010850694444444444,0,0,0.010850694444444444,13.606770833333332,0)" xlink:href="#aJ"/><use transform="matrix(0.010850694444444444,0,0,0.010850694444444444,26.746961805555554,0)" xlink:href="#az"/><use transform="matrix(0.010850694444444444,0,0,0.010850694444444444,39.225260416666664,0)" xlink:href="#aQ"/><use transform="matrix(0.010850694444444444,0,0,0.010850694444444444,44.60720486111111,0)" xlink:href="#aO"/><use transform="matrix(0.010850694444444444,0,0,0.010850694444444444,49.98914930555556,0)" xlink:href="#aA"/><use transform="matrix(0.010850694444444444,0,0,0.010850694444444444,57.69314236111111,0)" xlink:href="#aM"/></g><g id="n"><use transform="matrix(0.010850694444444444,0,0,0.010850694444444444,0,0)" xlink:href="#aP"/><use transform="matrix(0.010850694444444444,0,0,0.010850694444444444,19.466145833333332,0)" xlink:href="#aF"/><use transform="matrix(0.010850694444444444,0,0,0.010850694444444444,32.79079861111111,0)" xlink:href="#aI"/><use transform="matrix(0.010850694444444444,0,0,0.010850694444444444,46.39756944444444,0)" xlink:href="#aC"/><use transform="matrix(0.010850694444444444,0,0,0.010850694444444444,59.35329861111111,0)" xlink:href="#aL"/></g><path d="M180 0v-1490h270l367 940c28 72 75 218 110 339 35-117 81-264 110-339l362-940h271V0h-187c2-448-5-837 7-1287-157 497-311 829-483 1287H842C666-458 514-784 354-1284c12 438 5 843 7 1284H180" id="aT"/><path d="M370-1490V0H180v-1490h190" id="aU"/><path d="M784 20c-382 0-662-292-662-764 0-473 280-766 662-766s660 293 660 766c0 472-278 764-660 764zm0-176c266 0 475-207 475-588 0-383-209-590-475-590-268 0-477 208-477 590 0 380 209 588 477 588" id="aV"/><g id="o"><use transform="matrix(0.010850694444444444,0,0,0.010850694444444444,0,0)" xlink:href="#aT"/><use transform="matrix(0.010850694444444444,0,0,0.010850694444444444,20.07378472222222,0)" xlink:href="#aO"/><use transform="matrix(0.010850694444444444,0,0,0.010850694444444444,25.455729166666664,0)" xlink:href="#aD"/><use transform="matrix(0.010850694444444444,0,0,0.010850694444444444,38.58506944444444,0)" xlink:href="#aU"/><use transform="matrix(0.010850694444444444,0,0,0.010850694444444444,44.552951388888886,0)" xlink:href="#aV"/></g><path d="M218-607c0-325 108-727 258-974h175c-155 315-250 682-250 974 0 265 78 531 250 886H476C306-10 218-315 218-607" id="aW"/><path d="M180 0v-1490h528c311 0 458 177 458 395 0 191-114 278-244 313v14c139 9 302 137 302 371 0 225-148 397-499 397H180zm190-168h350c232 0 321-102 321-231 0-149-120-277-311-277H370v508zm0-668h328c160 0 286-101 286-255 0-129-87-231-280-231H370v486" id="aX"/><path d="M126 0v-134l627-806v-11H146v-167h839v143L376-178v11h629V0H126" id="aY"/><g id="p"><use transform="matrix(0.010850694444444444,0,0,0.010850694444444444,0,0)" xlink:href="#aW"/><use transform="matrix(0.010850694444444444,0,0,0.010850694444444444,8.10546875,0)" xlink:href="#aX"/><use transform="matrix(0.010850694444444444,0,0,0.010850694444444444,22.645399305555554,0)" xlink:href="#aE"/><use transform="matrix(0.010850694444444444,0,0,0.010850694444444444,30.642361111111114,0)" xlink:href="#aF"/><use transform="matrix(0.010850694444444444,0,0,0.010850694444444444,43.96701388888889,0)" xlink:href="#aD"/><use transform="matrix(0.010850694444444444,0,0,0.010850694444444444,57.09635416666667,0)" xlink:href="#aY"/><use transform="matrix(0.010850694444444444,0,0,0.010850694444444444,69.04296875,0)" xlink:href="#aC"/></g><path d="M180 0v-1490h190v1322h690V0H180" id="aZ"/><path d="M96 279C273-86 346-350 346-607c0-292-95-659-250-974h175c150 246 258 650 258 974 0 297-91 602-258 886H96" id="ba"/><g id="q"><use transform="matrix(0.010850694444444444,0,0,0.010850694444444444,0,0)" xlink:href="#aZ"/><use transform="matrix(0.010850694444444444,0,0,0.010850694444444444,12.565104166666666,0)" xlink:href="#az"/><use transform="matrix(0.010850694444444444,0,0,0.010850694444444444,24.717881944444443,0)" xlink:href="#aM"/><use transform="matrix(0.010850694444444444,0,0,0.010850694444444444,36.77300347222222,0)" xlink:href="#aC"/><use transform="matrix(0.010850694444444444,0,0,0.010850694444444444,49.728732638888886,0)" xlink:href="#aE"/><use transform="matrix(0.010850694444444444,0,0,0.010850694444444444,58.09461805555555,0)" xlink:href="#ba"/><use transform="matrix(0.010850694444444444,0,0,0.010850694444444444,66.20008680555554,0)" xlink:href="#aG"/></g><path d="M180 0v-1490h510c348 0 508 194 508 460 0 198-88 351-276 417L1256 0h-220L726-579c-117 2-238 0-356 1V0H180zm190-747h312c235 0 327-108 327-283 0-177-92-293-329-293H370v576" id="bb"/><path d="M409 0L70-1118h191c89 329 165 560 243 925 75-353 154-601 240-925h192c85 325 161 564 235 922 77-354 157-598 244-922h191L1267 0h-179c-86-307-176-590-250-913C763-588 675-308 588 0H409" id="bc"/><g id="r"><use transform="matrix(0.010850694444444444,0,0,0.010850694444444444,0,0)" xlink:href="#bb"/><use transform="matrix(0.010850694444444444,0,0,0.010850694444444444,14.192708333333332,0)" xlink:href="#az"/><use transform="matrix(0.010850694444444444,0,0,0.010850694444444444,26.671006944444443,0)" xlink:href="#bc"/></g><g id="s"><use transform="matrix(0.010850694444444444,0,0,0.010850694444444444,0,0)" xlink:href="#aH"/><use transform="matrix(0.010850694444444444,0,0,0.010850694444444444,14.192708333333332,0)" xlink:href="#az"/><use transform="matrix(0.010850694444444444,0,0,0.010850694444444444,26.671006944444443,0)" xlink:href="#aE"/><use transform="matrix(0.010850694444444444,0,0,0.010850694444444444,34.66796875,0)" xlink:href="#aS"/><use transform="matrix(0.010850694444444444,0,0,0.010850694444444444,48.27473958333333,0)" xlink:href="#aJ"/><use transform="matrix(0.010850694444444444,0,0,0.010850694444444444,61.41493055555555,0)" xlink:href="#aC"/><use transform="matrix(0.010850694444444444,0,0,0.010850694444444444,74.37065972222221,0)" xlink:href="#aA"/></g><path d="M678-1118v154H420V0H240v-964H20v-154h220v-149c0-194 155-293 318-293 85 0 141 18 168 30l-50 154c-19-6-47-17-97-17-111 0-159 58-159 166v109h258" id="bd"/><g id="t"><use transform="matrix(0.010850694444444444,0,0,0.010850694444444444,0,0)" xlink:href="#bd"/><use transform="matrix(0.010850694444444444,0,0,0.010850694444444444,8.22482638888889,0)" xlink:href="#aO"/><use transform="matrix(0.010850694444444444,0,0,0.010850694444444444,13.606770833333332,0)" xlink:href="#aQ"/><use transform="matrix(0.010850694444444444,0,0,0.010850694444444444,18.98871527777778,0)" xlink:href="#aC"/><use transform="matrix(0.010850694444444444,0,0,0.010850694444444444,31.944444444444443,0)" xlink:href="#aL"/></g><path d="M611 442c-248 0-391-105-460-228l146-94c47 65 117 165 314 165 178 0 307-82 307-266v-224h-17C863-141 792-18 576-18c-268 0-472-195-472-546 0-346 197-568 476-568 216 0 288 133 326 193h17v-179h175V29c0 289-215 413-487 413zm-5-620c203 0 314-146 314-390 0-237-108-403-314-403-213 0-319 180-319 403 0 230 109 390 319 390" id="be"/><g id="u"><use transform="matrix(0.010850694444444444,0,0,0.010850694444444444,0,0)" xlink:href="#aU"/><use transform="matrix(0.010850694444444444,0,0,0.010850694444444444,5.967881944444445,0)" xlink:href="#aD"/><use transform="matrix(0.010850694444444444,0,0,0.010850694444444444,19.09722222222222,0)" xlink:href="#be"/><use transform="matrix(0.010850694444444444,0,0,0.010850694444444444,32.72569444444444,0)" xlink:href="#aC"/><use transform="matrix(0.010850694444444444,0,0,0.010850694444444444,45.68142361111111,0)" xlink:href="#aL"/><use transform="matrix(0.010850694444444444,0,0,0.010850694444444444,57.41102430555555,0)" xlink:href="#aA"/></g><path d="M52 0l541-1490h220L1361 0h-200l-149-416H398L254 0H52zm404-582h497c-103-290-145-390-251-756-108 377-145 460-246 756" id="bf"/><g id="v"><use transform="matrix(0.010850694444444444,0,0,0.010850694444444444,0,0)" xlink:href="#ay"/><use transform="matrix(0.010850694444444444,0,0,0.010850694444444444,15.27777777777778,0)" xlink:href="#bf"/><use transform="matrix(0.010850694444444444,0,0,0.010850694444444444,29.850260416666664,0)" xlink:href="#aB"/></g><path d="M158 0v-1490h180v865h22l478-493h223L593-638 1096 0H865L456-523 338-412V0H158" id="bg"/><g id="w"><use transform="matrix(0.010850694444444444,0,0,0.010850694444444444,0,0)" xlink:href="#ay"/><use transform="matrix(0.010850694444444444,0,0,0.010850694444444444,16.03732638888889,0)" xlink:href="#aJ"/><use transform="matrix(0.010850694444444444,0,0,0.010850694444444444,29.17751736111111,0)" xlink:href="#aK"/><use transform="matrix(0.010850694444444444,0,0,0.010850694444444444,41.872829861111114,0)" xlink:href="#bg"/><use transform="matrix(0.010850694444444444,0,0,0.010850694444444444,54.06901041666667,0)" xlink:href="#ay"/><use transform="matrix(0.010850694444444444,0,0,0.010850694444444444,70.10633680555556,0)" xlink:href="#aX"/></g><g id="x"><use transform="matrix(0.010850694444444444,0,0,0.010850694444444444,0,0)" xlink:href="#bf"/><use transform="matrix(0.010850694444444444,0,0,0.010850694444444444,15.33203125,0)" xlink:href="#aH"/><use transform="matrix(0.010850694444444444,0,0,0.010850694444444444,29.524739583333332,0)" xlink:href="#aU"/></g><path d="M657 26c-323 0-524-166-541-416h195c15 169 171 246 346 246 202 0 356-106 356-265 5-203-294-238-475-293-239-73-380-191-380-389 0-252 224-419 512-419 294 0 499 171 508 396H992c-17-145-151-228-328-228-193 0-321 102-321 242 0 156 175 211 284 241l149 41c160 44 422 134 422 412 0 244-197 432-541 432" id="bh"/><path d="M481 0L54-1118h197c107 314 236 620 325 951 87-331 217-637 324-951h197L670 0H481" id="bi"/><g id="y"><use transform="matrix(0.010850694444444444,0,0,0.010850694444444444,0,0)" xlink:href="#bh"/><use transform="matrix(0.010850694444444444,0,0,0.010850694444444444,14.2578125,0)" xlink:href="#aO"/><use transform="matrix(0.010850694444444444,0,0,0.010850694444444444,19.639756944444443,0)" xlink:href="#aQ"/><use transform="matrix(0.010850694444444444,0,0,0.010850694444444444,25.13020833333333,0)" xlink:href="#bi"/><use transform="matrix(0.010850694444444444,0,0,0.010850694444444444,37.18532986111111,0)" xlink:href="#aC"/><use transform="matrix(0.010850694444444444,0,0,0.010850694444444444,50.14105902777778,0)" xlink:href="#aE"/></g><g id="z"><use transform="matrix(0.010850694444444444,0,0,0.010850694444444444,0,0)" xlink:href="#aZ"/><use transform="matrix(0.010850694444444444,0,0,0.010850694444444444,12.565104166666666,0)" xlink:href="#az"/><use transform="matrix(0.010850694444444444,0,0,0.010850694444444444,24.717881944444443,0)" xlink:href="#aM"/><use transform="matrix(0.010850694444444444,0,0,0.010850694444444444,36.77300347222222,0)" xlink:href="#aC"/><use transform="matrix(0.010850694444444444,0,0,0.010850694444444444,49.728732638888886,0)" xlink:href="#aE"/></g><path d="M784 20c-382 0-662-292-662-764 0-473 280-766 662-766s660 293 660 766c0 282-99 499-260 629l192 255h-198L1049-33C969 2 880 20 784 20zm-62-486h198l156 205c112-98 183-261 183-483 0-383-209-590-475-590-268 0-477 208-477 590 0 380 209 588 477 588 54 0 106-9 154-25" id="bj"/><g id="A"><use transform="matrix(0.010850694444444444,0,0,0.010850694444444444,0,0)" xlink:href="#bj"/><use transform="matrix(0.010850694444444444,0,0,0.010850694444444444,16.9921875,0)" xlink:href="#aJ"/><use transform="matrix(0.010850694444444444,0,0,0.010850694444444444,30.13237847222222,0)" xlink:href="#az"/><use transform="matrix(0.010850694444444444,0,0,0.010850694444444444,42.61067708333333,0)" xlink:href="#aE"/><use transform="matrix(0.010850694444444444,0,0,0.010850694444444444,50.976562499999986,0)" xlink:href="#az"/><use transform="matrix(0.010850694444444444,0,0,0.010850694444444444,63.4548611111111,0)" xlink:href="#aD"/><use transform="matrix(0.010850694444444444,0,0,0.010850694444444444,76.58420138888887,0)" xlink:href="#aA"/><use transform="matrix(0.010850694444444444,0,0,0.010850694444444444,83.85416666666664,0)" xlink:href="#aO"/><use transform="matrix(0.010850694444444444,0,0,0.010850694444444444,89.23611111111109,0)" xlink:href="#aD"/><use transform="matrix(0.010850694444444444,0,0,0.010850694444444444,102.36545138888887,0)" xlink:href="#aC"/></g><g id="B"><use transform="matrix(0.010850694444444444,0,0,0.010850694444444444,0,0)" xlink:href="#aT"/><use transform="matrix(0.010850694444444444,0,0,0.010850694444444444,20.07378472222222,0)" xlink:href="#aC"/><use transform="matrix(0.010850694444444444,0,0,0.010850694444444444,33.029513888888886,0)" xlink:href="#aA"/><use transform="matrix(0.010850694444444444,0,0,0.010850694444444444,40.40798611111111,0)" xlink:href="#az"/><use transform="matrix(0.010850694444444444,0,0,0.010850694444444444,52.88628472222221,0)" xlink:href="#aI"/><use transform="matrix(0.010850694444444444,0,0,0.010850694444444444,66.49305555555554,0)" xlink:href="#az"/><use transform="matrix(0.010850694444444444,0,0,0.010850694444444444,78.97135416666666,0)" xlink:href="#aA"/><use transform="matrix(0.010850694444444444,0,0,0.010850694444444444,86.34982638888887,0)" xlink:href="#az"/></g><path d="M580 20c-295 0-476-179-476-409 0-189 123-290 294-416-104-125-173-226-173-362 0-197 144-337 365-337 224 0 362 144 362 321 0 185-174 312-306 405l319 387c38-75 61-165 61-267h173c0 208-62 332-120 406L1287 0h-217L967-124C868-27 716 20 580 20zm279-273L507-675l-51 38c-123 91-167 162-167 254 0 147 113 246 278 246 107 0 210-41 292-116zM538-908l97-72c54-40 136-101 136-206 0-95-68-163-176-163-113 0-189 74-189 181 0 90 53 164 132 260" id="bk"/><use transform="matrix(0.010850694444444444,0,0,0.010850694444444444,0,0)" xlink:href="#bk" id="C"/><g id="D"><use transform="matrix(0.010850694444444444,0,0,0.010850694444444444,0,0)" xlink:href="#bf"/><use transform="matrix(0.010850694444444444,0,0,0.010850694444444444,15.33203125,0)" xlink:href="#aJ"/><use transform="matrix(0.010850694444444444,0,0,0.010850694444444444,28.47222222222222,0)" xlink:href="#aI"/><use transform="matrix(0.010850694444444444,0,0,0.010850694444444444,42.07899305555556,0)" xlink:href="#aO"/><use transform="matrix(0.010850694444444444,0,0,0.010850694444444444,47.4609375,0)" xlink:href="#aA"/></g><g id="E"><use transform="matrix(0.010850694444444444,0,0,0.010850694444444444,0,0)" xlink:href="#bf"/><use transform="matrix(0.010850694444444444,0,0,0.010850694444444444,15.33203125,0)" xlink:href="#aQ"/><use transform="matrix(0.010850694444444444,0,0,0.010850694444444444,20.713975694444443,0)" xlink:href="#aC"/><use transform="matrix(0.010850694444444444,0,0,0.010850694444444444,33.66970486111111,0)" xlink:href="#aE"/><use transform="matrix(0.010850694444444444,0,0,0.010850694444444444,42.38281249999999,0)" xlink:href="#aA"/><use transform="matrix(0.010850694444444444,0,0,0.010850694444444444,49.65277777777778,0)" xlink:href="#aO"/><use transform="matrix(0.010850694444444444,0,0,0.010850694444444444,55.03472222222221,0)" xlink:href="#aD"/><use transform="matrix(0.010850694444444444,0,0,0.010850694444444444,68.16406249999999,0)" xlink:href="#be"/></g><path d="M180 0v-1490h908v168H370v486h669v168H370v500h727V0H180" id="bl"/><path d="M692-1560L212 224H46l480-1784h166" id="bm"/><g id="F"><use transform="matrix(0.010850694444444444,0,0,0.010850694444444444,0,0)" xlink:href="#aW"/><use transform="matrix(0.010850694444444444,0,0,0.010850694444444444,8.10546875,0)" xlink:href="#bl"/><use transform="matrix(0.010850694444444444,0,0,0.010850694444444444,21.46267361111111,0)" xlink:href="#aP"/><use transform="matrix(0.010850694444444444,0,0,0.010850694444444444,40.92881944444444,0)" xlink:href="#az"/><use transform="matrix(0.010850694444444444,0,0,0.010850694444444444,53.40711805555556,0)" xlink:href="#aO"/><use transform="matrix(0.010850694444444444,0,0,0.010850694444444444,58.7890625,0)" xlink:href="#aQ"/><use transform="matrix(0.010850694444444444,0,0,0.010850694444444444,64.17100694444444,0)" xlink:href="#bm"/><use transform="matrix(0.010850694444444444,0,0,0.010850694444444444,72.17881944444444,0)" xlink:href="#bh"/><use transform="matrix(0.010850694444444444,0,0,0.010850694444444444,86.43663194444444,0)" xlink:href="#aQ"/><use transform="matrix(0.010850694444444444,0,0,0.010850694444444444,91.81857638888889,0)" xlink:href="#az"/><use transform="matrix(0.010850694444444444,0,0,0.010850694444444444,104.296875,0)" xlink:href="#aK"/><use transform="matrix(0.010850694444444444,0,0,0.010850694444444444,116.9921875,0)" xlink:href="#bg"/><use transform="matrix(0.010850694444444444,0,0,0.010850694444444444,129.18836805555554,0)" xlink:href="#ba"/></g><g id="G"><use transform="matrix(0.010850694444444444,0,0,0.010850694444444444,0,0)" xlink:href="#bj"/><use transform="matrix(0.010850694444444444,0,0,0.010850694444444444,16.9921875,0)" xlink:href="#aJ"/><use transform="matrix(0.010850694444444444,0,0,0.010850694444444444,30.13237847222222,0)" xlink:href="#az"/><use transform="matrix(0.010850694444444444,0,0,0.010850694444444444,42.61067708333333,0)" xlink:href="#aQ"/><use transform="matrix(0.010850694444444444,0,0,0.010850694444444444,47.99262152777778,0)" xlink:href="#aO"/><use transform="matrix(0.010850694444444444,0,0,0.010850694444444444,53.37456597222221,0)" xlink:href="#aA"/><use transform="matrix(0.010850694444444444,0,0,0.010850694444444444,61.07855902777778,0)" xlink:href="#aM"/></g><g id="H"><use transform="matrix(0.010850694444444444,0,0,0.010850694444444444,0,0)" xlink:href="#bb"/><use transform="matrix(0.010850694444444444,0,0,0.010850694444444444,13.975694444444445,0)" xlink:href="#aC"/><use transform="matrix(0.010850694444444444,0,0,0.010850694444444444,26.931423611111104,0)" xlink:href="#aP"/><use transform="matrix(0.010850694444444444,0,0,0.010850694444444444,46.39756944444444,0)" xlink:href="#aC"/><use transform="matrix(0.010850694444444444,0,0,0.010850694444444444,59.35329861111111,0)" xlink:href="#aI"/><use transform="matrix(0.010850694444444444,0,0,0.010850694444444444,72.96006944444444,0)" xlink:href="#aO"/><use transform="matrix(0.010850694444444444,0,0,0.010850694444444444,78.34201388888889,0)" xlink:href="#az"/><use transform="matrix(0.010850694444444444,0,0,0.010850694444444444,90.8203125,0)" xlink:href="#aA"/><use transform="matrix(0.010850694444444444,0,0,0.010850694444444444,98.09027777777777,0)" xlink:href="#aO"/><use transform="matrix(0.010850694444444444,0,0,0.010850694444444444,103.47222222222221,0)" xlink:href="#aF"/><use transform="matrix(0.010850694444444444,0,0,0.010850694444444444,116.79687499999997,0)" xlink:href="#aD"/></g><g id="I"><use transform="matrix(0.010850694444444444,0,0,0.010850694444444444,0,0)" xlink:href="#aB"/><use transform="matrix(0.010850694444444444,0,0,0.010850694444444444,16.57986111111111,0)" xlink:href="#aF"/><use transform="matrix(0.010850694444444444,0,0,0.010850694444444444,29.90451388888889,0)" xlink:href="#aQ"/><use transform="matrix(0.010850694444444444,0,0,0.010850694444444444,35.28645833333333,0)" xlink:href="#aI"/></g><g id="J"><use transform="matrix(0.010850694444444444,0,0,0.010850694444444444,0,0)" xlink:href="#aB"/><use transform="matrix(0.010850694444444444,0,0,0.010850694444444444,16.57986111111111,0)" xlink:href="#aF"/><use transform="matrix(0.010850694444444444,0,0,0.010850694444444444,29.90451388888889,0)" xlink:href="#aQ"/><use transform="matrix(0.010850694444444444,0,0,0.010850694444444444,35.28645833333333,0)" xlink:href="#aI"/></g><path d="M677 24c-213 0-288-135-325-197h-20V0H158v-1490h180v551h14c37-59 106-193 324-193 279 0 474 222 474 576 0 356-194 580-473 580zm-27-161c209 0 317-186 317-421 0-232-105-413-317-413-206 0-314 166-314 413 0 249 111 421 314 421" id="bn"/><g id="K"><use transform="matrix(0.010850694444444444,0,0,0.010850694444444444,0,0)" xlink:href="#aT"/><use transform="matrix(0.010850694444444444,0,0,0.010850694444444444,20.07378472222222,0)" xlink:href="#aC"/><use transform="matrix(0.010850694444444444,0,0,0.010850694444444444,33.029513888888886,0)" xlink:href="#aA"/><use transform="matrix(0.010850694444444444,0,0,0.010850694444444444,40.40798611111111,0)" xlink:href="#az"/><use transform="matrix(0.010850694444444444,0,0,0.010850694444444444,52.88628472222221,0)" xlink:href="#bn"/><use transform="matrix(0.010850694444444444,0,0,0.010850694444444444,66.71006944444443,0)" xlink:href="#az"/><use transform="matrix(0.010850694444444444,0,0,0.010850694444444444,79.18836805555554,0)" xlink:href="#aL"/><use transform="matrix(0.010850694444444444,0,0,0.010850694444444444,90.91796874999997,0)" xlink:href="#aC"/></g><g id="L"><use transform="matrix(0.010850694444444444,0,0,0.010850694444444444,0,0)" xlink:href="#ay"/><use transform="matrix(0.010850694444444444,0,0,0.010850694444444444,16.03732638888889,0)" xlink:href="#az"/><use transform="matrix(0.010850694444444444,0,0,0.010850694444444444,28.515625,0)" xlink:href="#aL"/><use transform="matrix(0.010850694444444444,0,0,0.010850694444444444,40.24522569444444,0)" xlink:href="#aN"/><use transform="matrix(0.010850694444444444,0,0,0.010850694444444444,53.385416666666664,0)" xlink:href="#bn"/><use transform="matrix(0.010850694444444444,0,0,0.010850694444444444,66.9921875,0)" xlink:href="#aF"/><use transform="matrix(0.010850694444444444,0,0,0.010850694444444444,80.53385416666666,0)" xlink:href="#az"/><use transform="matrix(0.010850694444444444,0,0,0.010850694444444444,93.01215277777777,0)" xlink:href="#aE"/><use transform="matrix(0.010850694444444444,0,0,0.010850694444444444,101.00911458333333,0)" xlink:href="#aI"/></g><path fill="#3a414a" d="M628 22C291 22 81-210 81-554c0-346 210-578 547-578 265 0 455 142 497 372l-279 52c-25-116-99-188-215-188-160 0-244 139-244 341 0 200 84 341 244 341 116 0 193-74 217-195l279 51C1085-123 896 22 628 22" id="bo"/><path fill="#3a414a" d="M428-1490V0H128v-1490h300" id="bp"/><path fill="#3a414a" d="M633 22C291 22 81-200 81-553c0-345 210-579 537-579 292 0 525 185 525 567v84H378c7 183 109 277 260 277 105 0 184-46 216-132l272 51C1071-99 893 22 633 22zM380-669h474c-15-146-94-237-233-237-143 0-229 99-241 237" id="bq"/><path fill="#3a414a" d="M440 22C227 22 68-92 68-313c0-250 202-322 422-343 195-21 271-24 271-105 0-95-63-149-175-149-116 0-187 57-211 129l-275-46c57-194 237-305 487-305 240 0 474 108 474 379V0H777v-155h-10C713-51 605 22 440 22zm85-211c140 0 238-93 238-211v-121c-37 26-156 42-222 51-111 16-185 59-185 149 0 87 70 132 169 132" id="br"/><path fill="#3a414a" d="M428-647V0H128v-1118h283l4 231c63-156 176-245 348-245 232 0 384 159 384 421V0H847v-659c0-139-76-222-202-222-128 0-217 86-217 234" id="bs"/><g id="M"><use transform="matrix(0.008680555555555556,0,0,0.008680555555555556,0,0)" xlink:href="#bo"/><use transform="matrix(0.008680555555555556,0,0,0.008680555555555556,10.460069444444445,0)" xlink:href="#bp"/><use transform="matrix(0.008680555555555556,0,0,0.008680555555555556,15.277777777777779,0)" xlink:href="#bq"/><use transform="matrix(0.008680555555555556,0,0,0.008680555555555556,26.041666666666668,0)" xlink:href="#br"/><use transform="matrix(0.008680555555555556,0,0,0.008680555555555556,36.36284722222222,0)" xlink:href="#bs"/></g><path fill="#3a414a" d="M128 0v-1118h290v195h12c54-169 184-238 367-200v268c-27-8-86-15-130-15-138 0-239 95-239 234V0H128" id="bt"/><path fill="#3a414a" d="M628 22C291 22 81-210 81-554c0-346 210-578 547-578 336 0 547 232 547 578 0 344-211 576-547 576zm0-236c160 0 242-146 242-341 0-197-82-341-242-341S387-753 387-555c0 195 81 341 241 341" id="bu"/><path fill="#3a414a" d="M361 0L31-1118h315c68 295 127 523 188 845 63-317 128-551 199-845h276c71 296 131 525 196 846 57-321 119-552 186-846h319L1378 0h-305c-73-261-148-486-204-771C813-484 740-261 666 0H361" id="bv"/><path fill="#3a414a" d="M572 22C302 22 117-98 78-306l279-48c29 105 101 156 224 156 114 0 185-48 185-115 0-118-228-130-337-155-215-49-322-150-322-317 0-215 187-347 470-347 265 0 424 116 466 298l-266 47c-24-76-87-130-196-130-98 0-174 46-174 113 0 56 38 95 144 117l201 40c216 44 320 143 320 302 0 220-207 367-500 367" id="bw"/><g id="N"><use transform="matrix(0.008680555555555556,0,0,0.008680555555555556,0,0)" xlink:href="#bt"/><use transform="matrix(0.008680555555555556,0,0,0.008680555555555556,6.805555555555556,0)" xlink:href="#bu"/><use transform="matrix(0.008680555555555556,0,0,0.008680555555555556,17.46527777777778,0)" xlink:href="#bv"/><use transform="matrix(0.008680555555555556,0,0,0.008680555555555556,32.578125,0)" xlink:href="#bw"/></g><path fill="#3a414a" d="M754 19C571 19 479-89 437-179h-14V0H128v-1490h300v560h9c41-89 129-202 319-202 248 0 453 193 453 575 0 372-197 576-455 576zm-92-241c156 0 240-139 240-336 0-196-83-334-240-334-154 0-241 131-241 334 0 202 88 336 241 336" id="bx"/><path fill="#3a414a" d="M537 19C279 19 81-185 81-557c0-382 206-575 454-575 190 0 278 113 318 202h10v-560h300V0H868v-179h-15C812-89 719 19 537 19zm92-241c153 0 240-134 240-336 0-203-86-334-240-334-158 0-240 138-240 334 0 197 84 336 240 336" id="by"/><g id="O"><use transform="matrix(0.008680555555555556,0,0,0.008680555555555556,0,0)" xlink:href="#bx"/><use transform="matrix(0.008680555555555556,0,0,0.008680555555555556,11.380208333333334,0)" xlink:href="#br"/><use transform="matrix(0.008680555555555556,0,0,0.008680555555555556,21.70138888888889,0)" xlink:href="#by"/></g><path fill="#3a414a" d="M750-1118v229H516V0H217v-889H20v-229h197v-86c0-238 156-356 363-356 94 0 178 20 215 31l-54 226c-25-7-61-15-100-15-123-3-131 84-125 200h234" id="bz"/><path fill="#3a414a" d="M128 0v-1118h300V0H128zm150-1264c-91 0-165-68-165-154 0-85 74-154 165-154 90 0 165 69 165 154 0 86-75 154-165 154" id="bA"/><g id="P"><use transform="matrix(0.008680555555555556,0,0,0.008680555555555556,0,0)" xlink:href="#bz"/><use transform="matrix(0.008680555555555556,0,0,0.008680555555555556,7.222222222222222,0)" xlink:href="#bA"/><use transform="matrix(0.008680555555555556,0,0,0.008680555555555556,12.039930555555559,0)" xlink:href="#bp"/><use transform="matrix(0.008680555555555556,0,0,0.008680555555555556,16.857638888888893,0)" xlink:href="#bq"/></g><path fill="#3a414a" d="M683-1118v229H474v562c0 71 29 104 102 104 23 0 73-7 95-13l43 225C647 9 580 16 520 16 296 16 174-96 174-301v-588H20v-229h154v-266h300v266h209" id="bB"/><path fill="#3a414a" d="M128 0v-1490h300v802h17l366-430h347L740-633 1179 0H826L514-456l-86 97V0H128" id="bC"/><path fill="#3a414a" d="M625 442c-280 0-454-114-503-274l258-72c28 63 97 128 243 128 153 0 246-69 246-216v-206h-23C805-108 717-16 536-16 284-16 81-191 81-561c0-378 208-571 456-571 188 0 280 113 321 202h13v-188h295V-9c0 303-226 451-541 451zm5-686c153 0 240-119 240-319 0-198-86-329-240-329-158 0-241 137-241 329 0 195 85 319 241 319" id="bD"/><g id="Q"><use transform="matrix(0.008680555555555556,0,0,0.008680555555555556,0,0)" xlink:href="#bB"/><use transform="matrix(0.008680555555555556,0,0,0.008680555555555556,6.510416666666667,0)" xlink:href="#bt"/><use transform="matrix(0.008680555555555556,0,0,0.008680555555555556,13.506944444444446,0)" xlink:href="#br"/><use transform="matrix(0.008680555555555556,0,0,0.008680555555555556,23.828125,0)" xlink:href="#bo"/><use transform="matrix(0.008680555555555556,0,0,0.008680555555555556,34.28819444444444,0)" xlink:href="#bC"/><use transform="matrix(0.008680555555555556,0,0,0.008680555555555556,44.60069444444445,0)" xlink:href="#bA"/><use transform="matrix(0.008680555555555556,0,0,0.008680555555555556,49.41840277777778,0)" xlink:href="#bs"/><use transform="matrix(0.008680555555555556,0,0,0.008680555555555556,60.486111111111114,0)" xlink:href="#bD"/></g><path fill="#3a414a" d="M440-1490V0H135v-1490h305" id="bE"/><g id="R"><use transform="matrix(0.008680555555555556,0,0,0.008680555555555556,0,0)" xlink:href="#bE"/><use transform="matrix(0.008680555555555556,0,0,0.008680555555555556,4.991319444444445,0)" xlink:href="#bs"/><use transform="matrix(0.008680555555555556,0,0,0.008680555555555556,16.05902777777778,0)" xlink:href="#bD"/><use transform="matrix(0.008680555555555556,0,0,0.008680555555555556,27.291666666666668,0)" xlink:href="#bq"/><use transform="matrix(0.008680555555555556,0,0,0.008680555555555556,37.88194444444444,0)" xlink:href="#bw"/><use transform="matrix(0.008680555555555556,0,0,0.008680555555555556,47.838541666666664,0)" xlink:href="#bB"/><use transform="matrix(0.008680555555555556,0,0,0.008680555555555556,54.34895833333333,0)" xlink:href="#bA"/><use transform="matrix(0.008680555555555556,0,0,0.008680555555555556,59.166666666666664,0)" xlink:href="#bu"/><use transform="matrix(0.008680555555555556,0,0,0.008680555555555556,70.06944444444444,0)" xlink:href="#bs"/></g><path fill="#3a414a" d="M49 0l509-1490h400L1480 0h-339l-115-346H497L386 0H49zm524-585h374c-75-213-124-402-192-666-66 268-110 453-182 666" id="bF"/><g id="S"><use transform="matrix(0.008680555555555556,0,0,0.008680555555555556,0,0)" xlink:href="#bF"/><use transform="matrix(0.008680555555555556,0,0,0.008680555555555556,13.272569444444445,0)" xlink:href="#bp"/><use transform="matrix(0.008680555555555556,0,0,0.008680555555555556,18.09027777777778,0)" xlink:href="#bq"/><use transform="matrix(0.008680555555555556,0,0,0.008680555555555556,28.680555555555557,0)" xlink:href="#bt"/><use transform="matrix(0.008680555555555556,0,0,0.008680555555555556,36.267361111111114,0)" xlink:href="#bB"/></g><path fill="#3a414a" d="M169-607c0-330 107-732 258-974h279c-145 311-231 674-231 974 0 262 67 512 231 886H427C258-1 169-307 169-607" id="bG"/><path fill="#3a414a" d="M443 0L31-1118h319c90 293 199 572 268 885 66-313 175-593 264-885h315L784 0H443" id="bH"/><path fill="#3a414a" d="M120 396l69-226c123 42 245 23 254-107l8-60L31-1118h319c87 288 199 559 259 872 72-308 185-583 277-872h315L726 132c-68 181-186 294-410 294-79 0-153-13-196-30" id="bI"/><g id="T"><use transform="matrix(0.008680555555555556,0,0,0.008680555555555556,0,0)" xlink:href="#bG"/><use transform="matrix(0.008680555555555556,0,0,0.008680555555555556,6.6059027777777795,0)" xlink:href="#bq"/><use transform="matrix(0.008680555555555556,0,0,0.008680555555555556,16.875,0)" xlink:href="#bH"/><use transform="matrix(0.008680555555555556,0,0,0.008680555555555556,27.213541666666664,0)" xlink:href="#bq"/><use transform="matrix(0.008680555555555556,0,0,0.008680555555555556,37.80381944444444,0)" xlink:href="#bt"/><use transform="matrix(0.008680555555555556,0,0,0.008680555555555556,45.32118055555556,0)" xlink:href="#bI"/></g><path fill="#3a414a" d="M684 20C381 20 94-164 94-710c0-501 235-800 601-800 293 0 496 188 526 433H921c-25-105-108-170-226-170-197 0-301 182-301 476h10c67-130 211-208 374-208 263 0 459 201 459 481 0 301-224 518-553 518zm-2-242c147 0 258-116 258-268 0-150-108-266-256-266-146 0-259 121-259 267 0 147 109 267 257 267" id="bJ"/><path fill="#3a414a" d="M428-647V0H128v-1490h294v586c65-146 175-228 341-228 232 0 385 159 385 421V0H847v-659c0-139-76-222-202-222-128 0-217 86-217 234" id="bK"/><path fill="#3a414a" d="M67 279c166-379 230-627 230-886 0-300-86-663-230-974h278c151 241 258 644 258 974 0 302-90 608-258 886H67" id="bL"/><g id="U"><use transform="matrix(0.008680555555555556,0,0,0.008680555555555556,0,0)" xlink:href="#bJ"/><use transform="matrix(0.008680555555555556,0,0,0.008680555555555556,11.54513888888889,0)" xlink:href="#bK"/><use transform="matrix(0.008680555555555556,0,0,0.008680555555555556,22.612847222222225,0)" xlink:href="#bL"/></g><path fill="#3a414a" d="M128 0v-1118h278l12 217c60-163 185-234 319-234 143 0 236 81 288 251 63-172 205-251 359-251 205 0 357 138 357 381V0h-301v-697c0-126-76-187-177-187-114 0-184 79-184 196V0H789v-705c0-109-72-179-174-179-106 0-187 74-187 208V0H128" id="bM"/><g id="V"><use transform="matrix(0.008680555555555556,0,0,0.008680555555555556,0,0)" xlink:href="#bM"/><use transform="matrix(0.008680555555555556,0,0,0.008680555555555556,16.223958333333336,0)" xlink:href="#bu"/><use transform="matrix(0.008680555555555556,0,0,0.008680555555555556,27.12673611111111,0)" xlink:href="#bs"/><use transform="matrix(0.008680555555555556,0,0,0.008680555555555556,38.19444444444444,0)" xlink:href="#bA"/><use transform="matrix(0.008680555555555556,0,0,0.008680555555555556,43.012152777777786,0)" xlink:href="#bB"/><use transform="matrix(0.008680555555555556,0,0,0.008680555555555556,49.348958333333336,0)" xlink:href="#bu"/><use transform="matrix(0.008680555555555556,0,0,0.008680555555555556,60.251736111111114,0)" xlink:href="#bt"/><use transform="matrix(0.008680555555555556,0,0,0.008680555555555556,67.49131944444444,0)" xlink:href="#bw"/></g><path fill="#3a414a" d="M659 0H135v-1490h529c448 0 721 280 721 744 0 466-273 746-726 746zM440-263h204c287 0 437-148 437-483 0-333-150-481-435-481H440v964" id="bN"/><g id="W"><use transform="matrix(0.008680555555555556,0,0,0.008680555555555556,0,0)" xlink:href="#bN"/><use transform="matrix(0.008680555555555556,0,0,0.008680555555555556,12.838541666666668,0)" xlink:href="#br"/><use transform="matrix(0.008680555555555556,0,0,0.008680555555555556,23.159722222222225,0)" xlink:href="#bB"/><use transform="matrix(0.008680555555555556,0,0,0.008680555555555556,29.756944444444446,0)" xlink:href="#br"/></g><path fill="#3a414a" d="M789 20C394 20 94-260 94-744c0-487 300-766 695-766s695 279 695 766c0 264-89 467-233 597l215 271h-285L1058-29C976 3 886 20 789 20zm-94-532h261l108 139c70-83 110-208 110-371 0-321-154-495-385-495s-385 175-385 495c0 356 184 537 481 482" id="bO"/><path fill="#3a414a" d="M513 14c-232 0-385-159-385-421v-711h300v659c0 139 76 222 202 222 127 0 217-86 217-234v-647h301V0H864l-4-232C797-74 683 14 513 14" id="bP"/><g id="X"><use transform="matrix(0.008680555555555556,0,0,0.008680555555555556,0,0)" xlink:href="#bO"/><use transform="matrix(0.008680555555555556,0,0,0.008680555555555556,13.81076388888889,0)" xlink:href="#bP"/><use transform="matrix(0.008680555555555556,0,0,0.008680555555555556,24.878472222222225,0)" xlink:href="#br"/><use transform="matrix(0.008680555555555556,0,0,0.008680555555555556,35.19965277777778,0)" xlink:href="#bp"/><use transform="matrix(0.008680555555555556,0,0,0.008680555555555556,40.017361111111114,0)" xlink:href="#bA"/><use transform="matrix(0.008680555555555556,0,0,0.008680555555555556,44.83506944444445,0)" xlink:href="#bB"/><use transform="matrix(0.008680555555555556,0,0,0.008680555555555556,51.736111111111114,0)" xlink:href="#bI"/></g><g id="Y"><use transform="matrix(0.008680555555555556,0,0,0.008680555555555556,0,0)" xlink:href="#bF"/><use transform="matrix(0.008680555555555556,0,0,0.008680555555555556,13.272569444444445,0)" xlink:href="#bp"/><use transform="matrix(0.008680555555555556,0,0,0.008680555555555556,18.09027777777778,0)" xlink:href="#bq"/><use transform="matrix(0.008680555555555556,0,0,0.008680555555555556,28.680555555555557,0)" xlink:href="#bt"/><use transform="matrix(0.008680555555555556,0,0,0.008680555555555556,36.267361111111114,0)" xlink:href="#bB"/></g><path fill="#3a414a" d="M128 418v-1536h295v188h14c41-89 129-202 319-202 248 0 453 193 453 575 0 372-197 576-455 576-183 0-275-108-317-198h-9v597H128zm534-640c156 0 240-139 240-336 0-196-83-334-240-334-154 0-241 131-241 334 0 202 88 336 241 336" id="bQ"/><g id="Z"><use transform="matrix(0.008680555555555556,0,0,0.008680555555555556,0,0)" xlink:href="#bt"/><use transform="matrix(0.008680555555555556,0,0,0.008680555555555556,6.805555555555556,0)" xlink:href="#bq"/><use transform="matrix(0.008680555555555556,0,0,0.008680555555555556,17.395833333333336,0)" xlink:href="#bQ"/><use transform="matrix(0.008680555555555556,0,0,0.008680555555555556,28.602430555555557,0)" xlink:href="#bp"/><use transform="matrix(0.008680555555555556,0,0,0.008680555555555556,33.42013888888889,0)" xlink:href="#br"/><use transform="matrix(0.008680555555555556,0,0,0.008680555555555556,43.43750000000001,0)" xlink:href="#bI"/></g><path fill="#3a414a" d="M42 0l360-574-338-544h324c72 124 151 261 209 394 58-134 140-271 215-394h318L785-570 1146 0H824c-79-136-169-280-234-425C528-278 439-134 360 0H42" id="bR"/><g id="aa"><use transform="matrix(0.008680555555555556,0,0,0.008680555555555556,0,0)" xlink:href="#bz"/><use transform="matrix(0.008680555555555556,0,0,0.008680555555555556,7.222222222222222,0)" xlink:href="#bA"/><use transform="matrix(0.008680555555555556,0,0,0.008680555555555556,12.039930555555559,0)" xlink:href="#bR"/><use transform="matrix(0.008680555555555556,0,0,0.008680555555555556,21.99652777777778,0)" xlink:href="#bq"/><use transform="matrix(0.008680555555555556,0,0,0.008680555555555556,32.58680555555556,0)" xlink:href="#by"/></g><g id="ab"><use transform="matrix(0.008680555555555556,0,0,0.008680555555555556,0,0)" xlink:href="#bt"/><use transform="matrix(0.008680555555555556,0,0,0.008680555555555556,6.805555555555556,0)" xlink:href="#bu"/><use transform="matrix(0.008680555555555556,0,0,0.008680555555555556,17.46527777777778,0)" xlink:href="#bv"/><use transform="matrix(0.008680555555555556,0,0,0.008680555555555556,32.578125,0)" xlink:href="#bw"/></g><g id="ac"><use transform="matrix(0.008680555555555556,0,0,0.008680555555555556,0,0)" xlink:href="#bB"/><use transform="matrix(0.008680555555555556,0,0,0.008680555555555556,6.510416666666667,0)" xlink:href="#bt"/><use transform="matrix(0.008680555555555556,0,0,0.008680555555555556,13.880208333333334,0)" xlink:href="#bA"/><use transform="matrix(0.008680555555555556,0,0,0.008680555555555556,18.697916666666668,0)" xlink:href="#bD"/><use transform="matrix(0.008680555555555556,0,0,0.008680555555555556,29.930555555555557,0)" xlink:href="#bD"/><use transform="matrix(0.008680555555555556,0,0,0.008680555555555556,41.16319444444444,0)" xlink:href="#bq"/><use transform="matrix(0.008680555555555556,0,0,0.008680555555555556,51.75347222222222,0)" xlink:href="#bt"/></g><g id="ad"><use transform="matrix(0.008680555555555556,0,0,0.008680555555555556,0,0)" xlink:href="#bt"/><use transform="matrix(0.008680555555555556,0,0,0.008680555555555556,6.805555555555556,0)" xlink:href="#bq"/><use transform="matrix(0.008680555555555556,0,0,0.008680555555555556,17.395833333333336,0)" xlink:href="#bx"/><use transform="matrix(0.008680555555555556,0,0,0.008680555555555556,28.602430555555557,0)" xlink:href="#bP"/><use transform="matrix(0.008680555555555556,0,0,0.008680555555555556,39.67013888888889,0)" xlink:href="#bA"/><use transform="matrix(0.008680555555555556,0,0,0.008680555555555556,44.487847222222236,0)" xlink:href="#bp"/><use transform="matrix(0.008680555555555556,0,0,0.008680555555555556,49.305555555555564,0)" xlink:href="#by"/></g><path fill="#3a414a" d="M135 0v-1490h581c339 0 533 192 533 485 0 204-94 351-264 424L1302 0H964L680-532H440V0H135zm305-779h220c186 0 274-77 274-226 0-150-88-233-275-233H440v459" id="bS"/><g id="ae"><use transform="matrix(0.008680555555555556,0,0,0.008680555555555556,0,0)" xlink:href="#bS"/><use transform="matrix(0.008680555555555556,0,0,0.008680555555555556,11.458333333333334,0)" xlink:href="#bq"/><use transform="matrix(0.008680555555555556,0,0,0.008680555555555556,22.048611111111114,0)" xlink:href="#bM"/><use transform="matrix(0.008680555555555556,0,0,0.008680555555555556,38.27256944444444,0)" xlink:href="#bq"/><use transform="matrix(0.008680555555555556,0,0,0.008680555555555556,48.862847222222236,0)" xlink:href="#by"/><use transform="matrix(0.008680555555555556,0,0,0.008680555555555556,60.06944444444445,0)" xlink:href="#bA"/><use transform="matrix(0.008680555555555556,0,0,0.008680555555555556,64.88715277777779,0)" xlink:href="#br"/><use transform="matrix(0.008680555555555556,0,0,0.008680555555555556,75.20833333333334,0)" xlink:href="#bB"/><use transform="matrix(0.008680555555555556,0,0,0.008680555555555556,81.71875000000001,0)" xlink:href="#bA"/><use transform="matrix(0.008680555555555556,0,0,0.008680555555555556,86.53645833333334,0)" xlink:href="#bu"/><use transform="matrix(0.008680555555555556,0,0,0.008680555555555556,97.43923611111111,0)" xlink:href="#bs"/></g><g id="af"><use transform="matrix(0.008680555555555556,0,0,0.008680555555555556,0,0)" xlink:href="#bG"/><use transform="matrix(0.008680555555555556,0,0,0.008680555555555556,7.022569444444445,0)" xlink:href="#bM"/><use transform="matrix(0.008680555555555556,0,0,0.008680555555555556,23.24652777777778,0)" xlink:href="#br"/><use transform="matrix(0.008680555555555556,0,0,0.008680555555555556,33.567708333333336,0)" xlink:href="#bs"/><use transform="matrix(0.008680555555555556,0,0,0.008680555555555556,44.63541666666667,0)" xlink:href="#bP"/><use transform="matrix(0.008680555555555556,0,0,0.008680555555555556,55.70312500000001,0)" xlink:href="#br"/><use transform="matrix(0.008680555555555556,0,0,0.008680555555555556,66.02430555555556,0)" xlink:href="#bp"/><use transform="matrix(0.008680555555555556,0,0,0.008680555555555556,71.16319444444444,0)" xlink:href="#bL"/></g></defs></g></svg>